<?xml version="1.0" encoding="utf-8"?>
<!-- Generator: Adobe Illustrator 26.3.1, SVG Export Plug-In . SVG Version: 6.00 Build 0)  -->
<svg version="1.1" id="Capa_1" xmlns="http://www.w3.org/2000/svg" xmlns:xlink="http://www.w3.org/1999/xlink" x="0px" y="0px"
	 viewBox="0 0 212 60" style="enable-background:new 0 0 212 60;" xml:space="preserve">
<style type="text/css">
	.st0{clip-path:url(#SVGID_00000132793087134681568960000000347028303528478649_);}
	.st1{clip-path:url(#SVGID_00000181796529329284953690000013075119512498411689_);fill:#58595B;}
	.st2{clip-path:url(#SVGID_00000181796529329284953690000013075119512498411689_);fill:#2C3E98;}
	.st3{clip-path:url(#SVGID_00000181796529329284953690000013075119512498411689_);fill:#221F1F;}
	.st4{clip-path:url(#SVGID_00000181796529329284953690000013075119512498411689_);fill:#414141;}
	.st5{clip-path:url(#SVGID_00000181796529329284953690000013075119512498411689_);fill:#59595C;}
	.st6{clip-path:url(#SVGID_00000181796529329284953690000013075119512498411689_);fill:#FFFFFF;}
	.st7{clip-path:url(#SVGID_00000181796529329284953690000013075119512498411689_);fill:#E6E6E6;}
	.st8{clip-path:url(#SVGID_00000181796529329284953690000013075119512498411689_);fill:#808083;}
	.st9{clip-path:url(#SVGID_00000181796529329284953690000013075119512498411689_);fill:#919395;}
	.st10{clip-path:url(#SVGID_00000181796529329284953690000013075119512498411689_);fill:#A5A7AA;}
	.st11{clip-path:url(#SVGID_00000181796529329284953690000013075119512498411689_);fill:#104C97;}
	.st12{clip-path:url(#SVGID_00000181796529329284953690000013075119512498411689_);fill:#0767B0;}
	.st13{clip-path:url(#SVGID_00000181796529329284953690000013075119512498411689_);fill:#0E7DC1;}
</style>
<g id="CR_00000004524514223239250380000009061049795853222051_">
	<g>
		<defs>
			<rect id="SVGID_1_" x="3" y="2" width="205.72" height="56.45"/>
		</defs>
		<clipPath id="SVGID_00000039851986141427080380000012626963995971620787_">
			<use xlink:href="#SVGID_1_"  style="overflow:visible;"/>
		</clipPath>
		<g style="clip-path:url(#SVGID_00000039851986141427080380000012626963995971620787_);">
			<defs>
				<rect id="SVGID_00000134932043536230672720000013250080645951788700_" x="3" y="2" width="205.72" height="56.45"/>
			</defs>
			<clipPath id="SVGID_00000150104960449183488200000000841591638039559833_">
				<use xlink:href="#SVGID_00000134932043536230672720000013250080645951788700_"  style="overflow:visible;"/>
			</clipPath>
			<path style="clip-path:url(#SVGID_00000150104960449183488200000000841591638039559833_);fill:#58595B;" d="M36.63,36.65
				l-0.38,1.26c-0.63-0.13-1.13-0.38-1.76-0.38c-1.01,0-1.26,0.38-1.26,0.88c0,1.01,2.9,0.63,2.9,2.77c0,1.64-1.26,2.77-3.15,2.77
				c-0.88,0-1.64-0.13-2.27-0.5l0.5-1.51c0.63,0.38,1.26,0.5,2.02,0.5c0.88,0,1.26-0.38,1.26-1.01c0-1.13-2.9-0.63-2.9-2.77
				c0-1.51,1.01-2.65,3.15-2.65C35.25,36.15,36.13,36.27,36.63,36.65"/>
			<path style="clip-path:url(#SVGID_00000150104960449183488200000000841591638039559833_);fill:#58595B;" d="M36.76,43.83
				l0.88-6.05h1.64l-0.88,6.05H36.76z M39.53,36.27c0,0.5-0.38,0.88-1.01,0.88c-0.5,0-0.88-0.13-0.88-0.5c0-0.5,0.38-0.88,1.01-0.88
				C39.41,35.77,39.53,35.89,39.53,36.27"/>
			<path style="clip-path:url(#SVGID_00000150104960449183488200000000841591638039559833_);fill:#58595B;" d="M44.82,39.04
				c0,1.26-1.01,2.02-3.4,2.27c0,1.01,0.38,1.13,1.13,1.13c0.5,0,1.01-0.13,1.51-0.5l0.38,1.01c-0.5,0.5-1.26,0.88-2.27,0.88
				c-1.26,0-2.14-0.63-2.14-2.27v-0.88c0.38-2.02,1.26-3.15,3.15-3.15C44.19,37.53,44.82,38.29,44.82,39.04 M41.55,40.43
				c1.51-0.13,2.02-0.63,2.02-1.13c0-0.38-0.13-0.5-0.5-0.5C42.05,38.79,41.67,39.3,41.55,40.43"/>
			<path style="clip-path:url(#SVGID_00000150104960449183488200000000841591638039559833_);fill:#58595B;" d="M48.73,40.18v-0.5
				c0-0.5-0.13-0.63-0.63-0.63c-0.63,0-1.01,0.5-1.13,1.26l-0.5,3.4h-1.64l0.88-6.05h1.26v0.13v0.38c0.5-0.5,1.01-0.63,1.76-0.63
				c0.88,0,1.13,0.38,1.26,0.88c0.5-0.5,1.13-0.88,2.02-0.88c1.01,0,1.51,0.63,1.51,1.76v0.63l-0.5,3.65h-1.64l0.5-3.65v-0.5
				c0-0.5-0.13-0.63-0.63-0.63c-0.63,0-1.01,0.5-1.13,1.51l-0.5,3.4h-1.64L48.73,40.18z"/>
			<path style="clip-path:url(#SVGID_00000150104960449183488200000000841591638039559833_);fill:#58595B;" d="M59.94,39.67v1.13
				c-0.38,2.14-1.26,3.15-2.65,3.15c-0.5,0-1.01-0.13-1.26-0.38l-0.38,1.76h-1.64l1.01-7.56h1.26v0.13v0.38
				c0.5-0.5,1.13-0.63,1.76-0.63C59.44,37.53,59.94,38.29,59.94,39.67 M56.29,40.18l-0.38,2.14c0.13,0.13,0.5,0.38,0.88,0.38
				c0.88,0,1.13-0.5,1.26-1.76v-0.88c0-0.88-0.38-1.01-0.88-1.01C56.92,38.92,56.41,39.42,56.29,40.18"/>
			<path style="clip-path:url(#SVGID_00000150104960449183488200000000841591638039559833_);fill:#58595B;" d="M64.98,37.78
				l-0.5,1.51c-0.13-0.13-0.38-0.13-0.63-0.13c-0.88,0-1.51,0.63-1.64,2.02l-0.38,2.65h-1.64l0.88-6.05h1.26v0.5v0.38
				c0.5-0.63,1.13-1.01,1.76-1.01C64.73,37.53,64.85,37.78,64.98,37.78"/>
			<path style="clip-path:url(#SVGID_00000150104960449183488200000000841591638039559833_);fill:#58595B;" d="M69.89,39.04
				c0,1.26-1.01,2.02-3.4,2.27c0,1.01,0.38,1.13,1.13,1.13c0.5,0,1.01-0.13,1.51-0.5l0.38,1.01c-0.5,0.5-1.26,0.88-2.27,0.88
				c-1.26,0-2.14-0.63-2.14-2.27v-0.88c0.38-2.02,1.26-3.15,3.15-3.15C69.26,37.53,69.89,38.29,69.89,39.04 M66.62,40.43
				c1.51-0.13,2.02-0.63,2.02-1.13c0-0.38-0.13-0.5-0.5-0.5C67.12,38.79,66.74,39.3,66.62,40.43"/>
			<path style="clip-path:url(#SVGID_00000150104960449183488200000000841591638039559833_);fill:#58595B;" d="M73.17,37.78h0.88
				l0.5-1.51l1.26-0.13l-0.13,1.64h1.51l-0.13,1.13h-1.51l-0.38,2.65v0.38c0,0.5,0.13,0.63,0.5,0.63c0.13,0,0.5,0,0.63-0.13v1.13
				c-0.38,0.13-0.88,0.38-1.26,0.38c-1.01,0-1.51-0.5-1.51-1.64v-0.5l0.38-2.77h-0.88L73.17,37.78z"/>
			<path style="clip-path:url(#SVGID_00000150104960449183488200000000841591638039559833_);fill:#58595B;" d="M82.99,39.04
				c0,1.26-1.01,2.02-3.4,2.27c0,1.01,0.38,1.13,1.13,1.13c0.5,0,1.01-0.13,1.51-0.5l0.38,1.01c-0.5,0.5-1.26,0.88-2.27,0.88
				c-1.26,0-2.14-0.63-2.14-2.27v-0.88c0.38-2.02,1.26-3.15,3.15-3.15C82.36,37.53,82.99,38.29,82.99,39.04 M79.59,40.43
				c1.51-0.13,2.02-0.63,2.02-1.13c0-0.38-0.13-0.5-0.5-0.5C80.22,38.79,79.97,39.3,79.59,40.43"/>
			<path style="clip-path:url(#SVGID_00000150104960449183488200000000841591638039559833_);fill:#58595B;" d="M87.15,40.05v-0.38
				c0-0.5-0.13-0.88-0.63-0.88c-0.63,0-1.13,0.5-1.26,1.26l-0.5,3.4h-1.64L84,37.41h1.26v0.38v0.38c0.5-0.5,1.13-0.88,1.76-0.88
				c1.13,0,1.64,0.63,1.64,1.76v0.63l-0.5,3.78h-1.64L87.15,40.05z"/>
			<path style="clip-path:url(#SVGID_00000150104960449183488200000000841591638039559833_);fill:#58595B;" d="M94.58,39.04
				c0,1.26-1.01,2.02-3.4,2.27c0,1.01,0.38,1.13,1.13,1.13c0.5,0,1.01-0.13,1.51-0.5l0.38,1.01c-0.5,0.5-1.26,0.88-2.27,0.88
				c-1.26,0-2.14-0.63-2.14-2.27v-0.88c0.38-2.02,1.26-3.15,3.15-3.15C93.95,37.53,94.58,38.29,94.58,39.04 M91.31,40.43
				c1.51-0.13,2.02-0.63,2.02-1.13c0-0.38-0.13-0.5-0.5-0.5C91.81,38.79,91.43,39.3,91.31,40.43"/>
			<path style="clip-path:url(#SVGID_00000150104960449183488200000000841591638039559833_);fill:#58595B;" d="M99.37,37.91
				l-0.63,1.13c-0.38-0.13-0.88-0.13-1.26-0.13c-0.38,0-0.88,0.13-0.88,0.63c0,0.88,2.27,0.5,2.27,2.14v0.38
				c-0.13,1.13-0.88,2.02-2.52,2.02c-0.88,0-1.51-0.13-2.02-0.63l0.5-1.13c0.5,0.38,1.01,0.5,1.51,0.5c0.63,0,0.88-0.38,0.88-0.63
				c0-0.88-2.27-0.63-2.27-2.27c0-1.13,1.01-2.14,2.65-2.14C98.36,37.53,98.86,37.78,99.37,37.91"/>
			<path style="clip-path:url(#SVGID_00000150104960449183488200000000841591638039559833_);fill:#58595B;" d="M107.81,40.18v-0.5
				c0-0.5-0.13-0.63-0.63-0.63c-0.63,0-1.01,0.5-1.13,1.26l-0.5,3.4h-1.64l0.88-6.05h1.26v0.13v0.38c0.5-0.5,1.01-0.63,1.76-0.63
				s1.13,0.38,1.26,0.88c0.5-0.5,1.13-0.88,2.02-0.88c1.01,0,1.51,0.63,1.51,1.76v0.63l-0.5,3.65h-1.64l0.5-3.65v-0.5
				c0-0.5-0.13-0.63-0.63-0.63c-0.63,0-1.01,0.5-1.13,1.51l-0.5,3.4h-1.64L107.81,40.18z"/>
			<path style="clip-path:url(#SVGID_00000150104960449183488200000000841591638039559833_);fill:#58595B;" d="M119.02,37.78h0.13
				l-0.88,6.05H117v-0.13v-0.38c-0.5,0.5-1.13,0.63-1.76,0.63c-1.13,0-1.76-0.63-1.76-2.02c0-2.52,1.51-4.28,3.78-4.28
				C117.89,37.53,118.14,37.78,119.02,37.78 M117,41.19l0.38-2.27h-0.5c-1.01,0-1.64,0.63-1.76,2.14v0.63
				c0,0.63,0.13,1.01,0.88,1.01C116.5,42.7,117,42.07,117,41.19 M119.15,35.77l-1.51,1.51h-1.13l0.88-1.51H119.15z"/>
			<polygon style="clip-path:url(#SVGID_00000150104960449183488200000000841591638039559833_);fill:#58595B;" points="94.58,35.77 
				93.07,37.28 91.94,37.28 92.82,35.77 			"/>
			<path style="clip-path:url(#SVGID_00000150104960449183488200000000841591638039559833_);fill:#58595B;" d="M124.06,37.91
				l-0.63,1.13c-0.38-0.13-0.88-0.13-1.26-0.13c-0.38,0-0.88,0.13-0.88,0.63c0,0.88,2.27,0.5,2.27,2.14v0.38
				c-0.13,1.13-0.88,2.02-2.52,2.02c-0.88,0-1.51-0.13-2.02-0.63l0.5-1.13c0.5,0.38,1.01,0.5,1.51,0.5c0.63,0,0.88-0.38,0.88-0.63
				c0-0.88-2.27-0.63-2.27-2.27c0-1.13,1.01-2.14,2.65-2.14C123.05,37.53,123.81,37.78,124.06,37.91"/>
			<path style="clip-path:url(#SVGID_00000150104960449183488200000000841591638039559833_);fill:#2C3E98;" d="M12.83,19.52
				c-0.63-0.13-1.64-0.5-2.65-0.5c-2.27,0-2.9,1.01-2.9,3.91c0,3.15,0.63,4.16,2.9,4.16c1.01,0,1.76-0.13,2.65-0.5l0.38,3.15
				c-1.01,0.5-2.27,0.88-3.65,0.88C5.14,30.6,3,28.08,3,23.17c0-4.53,2.14-7.18,6.68-7.18c1.13,0,2.52,0.13,3.28,0.5L12.83,19.52z"
				/>
			<path style="clip-path:url(#SVGID_00000150104960449183488200000000841591638039559833_);fill:#2C3E98;" d="M23.91,24.43
				l3.15,5.79h-4.53l-2.14-4.91h-1.51v4.91h-3.91V16.12h5.42c3.78,0,5.79,1.51,5.79,4.53C26.05,22.54,25.3,23.93,23.91,24.43
				 M20.51,19.27H19v3.28h1.51c1.13,0,1.64-0.38,1.64-1.64C22.02,19.52,21.64,19.27,20.51,19.27"/>
			<polygon style="clip-path:url(#SVGID_00000150104960449183488200000000841591638039559833_);fill:#2C3E98;" points="38.4,26.95 
				38.4,30.23 28.45,30.23 28.45,16.12 38.15,16.12 38.15,19.39 32.23,19.39 32.23,21.53 37.01,21.53 37.01,24.43 32.23,24.43 
				32.23,26.95 			"/>
			<path style="clip-path:url(#SVGID_00000150104960449183488200000000841591638039559833_);fill:#2C3E98;" d="M45.96,30.23h-5.54
				V16.12h5.54c4.53,0,6.55,2.14,6.55,7.05C52.38,28.08,50.24,30.23,45.96,30.23 M45.96,19.39h-1.64v7.43h1.64
				c1.76,0,2.52-0.5,2.52-3.78C48.22,20.02,47.72,19.39,45.96,19.39"/>
			
				<rect x="54.65" y="16.12" style="clip-path:url(#SVGID_00000150104960449183488200000000841591638039559833_);fill:#2C3E98;" width="4.16" height="14.11"/>
			<path style="clip-path:url(#SVGID_00000150104960449183488200000000841591638039559833_);fill:#2C3E98;" d="M65.36,30.35
				c-1.64,0-3.28-0.38-4.41-1.01l0.5-3.28c1.26,0.63,2.65,1.01,3.91,1.01s1.76-0.38,1.76-1.13c0-1.76-6.3-1.01-6.3-5.79
				c0-2.52,1.64-4.53,5.42-4.53c1.51,0,2.9,0.38,4.16,0.63l-0.5,3.15c-1.13-0.38-2.52-0.5-3.4-0.5c-1.51,0-1.76,0.5-1.76,1.01
				c0,1.76,6.3,1.01,6.3,5.79C70.77,28.71,68.76,30.35,65.36,30.35"/>
			
				<rect x="72.66" y="16.12" style="clip-path:url(#SVGID_00000150104960449183488200000000841591638039559833_);fill:#2C3E98;" width="4.16" height="14.11"/>
			<polygon style="clip-path:url(#SVGID_00000150104960449183488200000000841591638039559833_);fill:#2C3E98;" points="83.75,16.12 
				86.52,23.3 87.02,24.81 87.53,23.3 90.3,16.12 94.58,16.12 94.58,30.23 90.93,30.23 90.93,24.31 90.93,22.79 90.42,24.31 
				88.16,30.35 85.51,30.35 83.24,24.31 82.74,22.79 82.74,24.31 82.74,30.35 79.34,30.35 79.34,16.24 			"/>
			<path style="clip-path:url(#SVGID_00000150104960449183488200000000841591638039559833_);fill:#2C3E98;" d="M105.41,27.71h-4.41
				l-0.63,2.52h-4.16l4.79-14.11h4.79l4.79,14.11h-4.41L105.41,27.71z M102.77,20.65l-1.01,3.91h2.77l-1.01-3.91l-0.38-1.51
				L102.77,20.65z"/>
			<path style="clip-path:url(#SVGID_00000150104960449183488200000000841591638039559833_);fill:#2C3E98;" d="M120.78,30.23
				L116,23.68l-0.88-1.26v1.51v6.3h-3.4V15.87h3.28l5.04,7.43v-1.51v-5.79h3.4V30.1C123.55,30.23,120.78,30.23,120.78,30.23"/>
			<path style="clip-path:url(#SVGID_00000150104960449183488200000000841591638039559833_);fill:#221F1F;" d="M202.92,43.2
				l-51.9-4.28c-1.64-0.13-2.9-1.64-2.77-3.28l2.52-30.86c0.13-1.64,1.64-2.9,3.28-2.77l51.9,4.28c1.64,0.13,2.9,1.64,2.77,3.28
				l-2.52,30.86C206.07,42.19,204.68,43.33,202.92,43.2"/>
			<path style="clip-path:url(#SVGID_00000150104960449183488200000000841591638039559833_);fill:#414141;" d="M206.19,40.56
				l2.52-30.86c0.13-1.64-1.13-3.15-2.77-3.28l-51.9-4.28c-1.64-0.13-3.15,1.13-3.28,2.77l17.51,21.16L206.19,40.56z"/>
			<path style="clip-path:url(#SVGID_00000150104960449183488200000000841591638039559833_);fill:#59595C;" d="M153.91,2.13
				l51.9,4.28c1.64,0.13,2.9,1.64,2.77,3.28"/>
			<path style="clip-path:url(#SVGID_00000150104960449183488200000000841591638039559833_);fill:#FFFFFF;" d="M157.06,24.81h0.63
				v-0.88h-1.01l0.13-1.51l1.13,0.13h0.13v0.13v0.13h-0.13h-0.88v0.88h0.63c0.13,0,0.13,0,0.13,0.13c0,0,0.13,0.13,0,0.13v0.88
				c0,0.13,0,0.13-0.13,0.13c0,0-0.13,0.13-0.13,0L157.06,24.81l-0.13,0.13l-0.13-0.13l-0.13-0.13v-0.13h0.13h0.13L157.06,24.81"/>
			<path style="clip-path:url(#SVGID_00000150104960449183488200000000841591638039559833_);fill:#FFFFFF;" d="M158.95,24.94
				l0.13-2.02c0-0.13,0-0.13,0.13-0.13h0.13h1.01c0.13,0,0.13,0,0.13,0.13v0.13l-0.13,2.02c0,0.13,0,0.13-0.13,0.13h-0.13h-1.01
				C158.95,25.19,158.95,25.19,158.95,24.94 M160.34,23.17h-1.01l-0.13,1.76h1.01L160.34,23.17z"/>
			<path style="clip-path:url(#SVGID_00000150104960449183488200000000841591638039559833_);fill:#FFFFFF;" d="M162.61,25.57
				l-1.51-0.13l0.13-1.13c0-0.13,0-0.13,0.13-0.13c0,0,0.13-0.13,0.13,0h1.01V23.3l-1.13-0.13h-0.13v-0.13v-0.13h0.13l1.13,0.13
				c0.13,0,0.13,0,0.13,0.13c0,0,0.13,0.13,0,0.13v0.88c0,0.13,0,0.13-0.13,0.13h-0.13h-1.01v0.88l1.13,0.13h0.13v0.13
				C162.86,25.44,162.86,25.44,162.61,25.57C162.86,25.57,162.86,25.57,162.61,25.57"/>
			<path style="clip-path:url(#SVGID_00000150104960449183488200000000841591638039559833_);fill:#FFFFFF;" d="M163.61,25.31
				l0.13-2.02c0-0.13,0-0.13,0.13-0.13h0.13H165c0.13,0,0.13,0,0.13,0.13v0.13L165,25.44c0,0.13,0,0.13-0.13,0.13h-0.13h-1.01
				C163.61,25.57,163.61,25.57,163.61,25.31C163.61,25.44,163.61,25.44,163.61,25.31 M165.12,23.42h-1.01l-0.13,1.76H165
				L165.12,23.42z"/>
			<path style="clip-path:url(#SVGID_00000150104960449183488200000000841591638039559833_);fill:#FFFFFF;" d="M168.53,25.82h0.5
				l0.13-1.76h-0.5h-0.13v-0.13V23.8h0.13h0.88l-0.13,2.14h0.38v-0.63v-0.13h0.13h0.13v0.13v0.88v0.13h-0.13l-1.26-0.13h-0.13v-0.13
				C168.4,25.82,168.4,25.82,168.53,25.82"/>
			<path style="clip-path:url(#SVGID_00000150104960449183488200000000841591638039559833_);fill:#FFFFFF;" d="M170.92,25.94
				l0.13-2.02c0-0.13,0-0.13,0.13-0.13h0.13h1.01c0.13,0,0.13,0,0.13,0.13v0.13l-0.13,2.02c0,0.13,0,0.13-0.13,0.13h-0.13h-1.01
				C170.92,26.2,170.92,26.2,170.92,25.94 M172.18,24.18h-1.01l-0.13,1.76h1.01L172.18,24.18z"/>
			<path style="clip-path:url(#SVGID_00000150104960449183488200000000841591638039559833_);fill:#FFFFFF;" d="M173.31,26.07h0.5
				l0.13-1.76h-0.5h-0.13v-0.13v-0.13h0.13h0.88l-0.13,2.14h0.38v-0.63v-0.13h0.13h0.13v0.13v0.88v0.13h-0.13l-1.26-0.13h-0.13
				v-0.13C173.19,26.32,173.19,26.07,173.31,26.07C173.19,26.07,173.31,26.07,173.31,26.07"/>
			<path style="clip-path:url(#SVGID_00000150104960449183488200000000841591638039559833_);fill:#FFFFFF;" d="M176.97,26.7
				l-1.51-0.13l0.13-1.13c0-0.13,0-0.13,0.13-0.13c0,0,0.13-0.13,0.13,0h1.01v-0.88l-1.13-0.13h-0.13v-0.13v-0.13h0.13l1.13,0.13
				c0.13,0,0.13,0,0.13,0.13c0,0,0.13,0.13,0,0.13v0.88c0,0.13,0,0.13-0.13,0.13h-0.13h-1.01v0.88l1.13,0.13h0.13v0.13
				C177.09,26.57,177.09,26.57,176.97,26.7C177.09,26.7,176.97,26.7,176.97,26.7"/>
			<path style="clip-path:url(#SVGID_00000150104960449183488200000000841591638039559833_);fill:#FFFFFF;" d="M180.24,26.7
				l0.13-2.02c0-0.13,0-0.13,0.13-0.13h0.13h1.01c0,0,0.13,0,0.13,0.13v0.13l-0.13,2.02c0,0.13,0,0.13-0.13,0.13h-0.13h-1.01
				C180.24,26.95,180.24,26.95,180.24,26.7C180.37,26.95,180.24,26.7,180.24,26.7 M181.75,24.94h-1.01l-0.13,1.76h1.01L181.75,24.94
				z"/>
			<path style="clip-path:url(#SVGID_00000150104960449183488200000000841591638039559833_);fill:#FFFFFF;" d="M182.63,26.95
				l0.13-2.02c0-0.13,0-0.13,0.13-0.13h0.13h1.01c0.13,0,0.13,0,0.13,0.13v0.13l-0.13,2.02c0,0.13,0,0.13-0.13,0.13h-0.13h-1.01
				C182.63,27.2,182.63,27.2,182.63,26.95C182.63,27.08,182.63,26.95,182.63,26.95 M184.15,25.06h-1.01l-0.13,1.76h1.01
				L184.15,25.06z"/>
			<path style="clip-path:url(#SVGID_00000150104960449183488200000000841591638039559833_);fill:#FFFFFF;" d="M185.03,27.08
				l0.13-2.02c0-0.13,0-0.13,0.13-0.13h0.13h1.01c0,0,0.13,0,0.13,0.13v0.13l-0.13,2.02c0,0.13,0,0.13-0.13,0.13h-0.13h-1.01
				C185.03,27.33,185.03,27.33,185.03,27.08 M186.41,25.31h-1.01l-0.13,1.76h1.01L186.41,25.31z"/>
			<path style="clip-path:url(#SVGID_00000150104960449183488200000000841591638039559833_);fill:#FFFFFF;" d="M188.05,27.2h0.63
				v-0.88h-1.01l0.13-1.51l1.13,0.13h0.13v0.13v0.13h-0.13h-0.88v0.88h0.63c0.13,0,0.13,0,0.13,0.13c0,0,0.13,0.13,0,0.13v0.88
				c0,0.13,0,0.13-0.13,0.13c0,0-0.13,0.13-0.13,0h-0.63h-0.13l-0.13-0.13l-0.13-0.13v-0.13h0.13h0.13L188.05,27.2
				C187.93,27.2,187.93,27.2,188.05,27.2"/>
			<path style="clip-path:url(#SVGID_00000150104960449183488200000000841591638039559833_);fill:#FFFFFF;" d="M193.97,25.94v0.63
				c0,0.13,0,0.38-0.13,0.38c0,0.13,0.13,0.13,0.13,0.38v0.63c0,0.13,0,0.13-0.13,0.13h-0.13l-1.13-0.13h-0.13v-0.13v-0.13h0.13
				l1.13,0.13V27.2v-0.13h-0.13h-0.63h-0.13v-0.13v-0.13h0.13h0.63h0.13V26.7v-0.63l-1.13-0.13h-0.13v-0.13v-0.13h0.13l1.13,0.38
				c0.13,0,0.13,0,0.13,0.13C193.97,25.82,193.97,25.82,193.97,25.94"/>
			<path style="clip-path:url(#SVGID_00000150104960449183488200000000841591638039559833_);fill:#FFFFFF;" d="M196.37,26.07v0.63
				c0,0.13,0,0.38-0.13,0.38c0,0.13,0.13,0.13,0.13,0.38v0.63c0,0.13,0,0.13-0.13,0.13h-0.13l-1.26-0.13h-0.13v-0.13v-0.13h0.13
				l1.13,0.13v-0.63V27.2h-0.13h-0.63h-0.13v-0.13v-0.13h0.13h0.63h0.13v-0.13V26.2l-1.13-0.13h-0.13v-0.13v-0.13h0.13l1.13,0.13
				c0.13,0,0.13,0,0.13,0.13C196.37,25.94,196.37,26.07,196.37,26.07"/>
			<path style="clip-path:url(#SVGID_00000150104960449183488200000000841591638039559833_);fill:#FFFFFF;" d="M197,28.08l0.13-2.02
				c0-0.13,0-0.13,0.13-0.13h0.13h1.01c0,0,0.13,0,0.13,0.13v0.13l-0.13,2.02c0,0.13,0,0.13-0.13,0.13h-0.13h-1.01
				C197,28.34,197,28.34,197,28.08 M198.51,26.32h-1.01l-0.13,1.76h1.01L198.51,26.32z"/>
			<path style="clip-path:url(#SVGID_00000150104960449183488200000000841591638039559833_);fill:#FFFFFF;" d="M199.26,28.21
				l0.13-2.02c0-0.13,0-0.13,0.13-0.13h0.13h1.01c0,0,0.13,0,0.13,0.13v0.13l-0.13,2.02c0,0.13,0,0.13-0.13,0.13h-0.13h-1.01
				C199.26,28.46,199.26,28.46,199.26,28.21C199.26,28.34,199.26,28.34,199.26,28.21 M200.78,26.45h-1.01l-0.13,1.76h1.01
				L200.78,26.45z"/>
			<path style="clip-path:url(#SVGID_00000150104960449183488200000000841591638039559833_);fill:#FFFFFF;" d="M181.37,16.75
				c0,0-0.13,0-0.38-0.13c-0.38,0-0.5,0.13-0.5,0.5c0,0.5,0.13,0.63,0.5,0.63h0.38v0.13H181c-0.38,0-0.5-0.38-0.5-0.88
				c0-0.5,0.13-0.63,0.63-0.63C181.25,16.37,181.25,16.62,181.37,16.75"/>
			<path style="clip-path:url(#SVGID_00000150104960449183488200000000841591638039559833_);fill:#FFFFFF;" d="M182.26,17.38
				l0.38,0.63h-0.13L182.26,17.38h-0.5v0.63h-0.13l0.13-1.26h0.5c0.38,0,0.38,0.13,0.38,0.38
				C182.38,17.25,182.38,17.38,182.26,17.38 M182,16.75h-0.38v0.5H182c0.13,0,0.38,0,0.38-0.38C182.38,16.75,182.26,16.75,182,16.75
				"/>
			<polygon style="clip-path:url(#SVGID_00000150104960449183488200000000841591638039559833_);fill:#FFFFFF;" points="
				183.52,18.01 183.52,18.01 182.63,18.01 182.76,16.75 183.64,16.75 183.64,16.87 183.01,16.87 183.01,17.38 183.64,17.38 
				183.64,17.5 183.01,17.5 183.01,18.01 			"/>
			<path style="clip-path:url(#SVGID_00000150104960449183488200000000841591638039559833_);fill:#FFFFFF;" d="M184.4,18.26h-0.5
				l0.13-1.26h0.5c0.38,0,0.5,0.13,0.5,0.63C184.78,18.01,184.65,18.26,184.4,18.26 M184.4,16.87h-0.38l-0.13,1.13h0.38
				c0.38,0,0.5-0.13,0.5-0.5C184.78,17.13,184.65,16.87,184.4,16.87"/>
			<polygon style="clip-path:url(#SVGID_00000150104960449183488200000000841591638039559833_);fill:#FFFFFF;" points="
				185.28,16.87 185.28,16.87 185.28,18.13 185.15,18.13 			"/>
			<path style="clip-path:url(#SVGID_00000150104960449183488200000000841591638039559833_);fill:#FFFFFF;" d="M186.04,18.38
				c-0.13,0-0.38,0-0.38-0.13v-0.25C185.78,18.26,186.04,18.26,186.04,18.38c0.13-0.13,0.38-0.13,0.38-0.38
				c0-0.38-0.63-0.38-0.63-0.63c0-0.13,0.13-0.38,0.5-0.38c0.13,0,0.38,0,0.38,0.13v0.13c-0.13,0-0.13-0.13-0.38-0.13
				c-0.13,0-0.38,0.13-0.38,0.13c0,0.38,0.63,0.13,0.63,0.63C186.41,18.26,186.29,18.38,186.04,18.38"/>
			<polygon style="clip-path:url(#SVGID_00000150104960449183488200000000841591638039559833_);fill:#FFFFFF;" points="
				186.92,17.12 186.92,17.12 186.92,18.38 186.79,18.38 			"/>
			<polygon style="clip-path:url(#SVGID_00000150104960449183488200000000841591638039559833_);fill:#FFFFFF;" points="
				187.67,17.12 188.05,18.26 188.05,18.38 188.05,18.26 188.56,17.25 188.68,17.25 188.56,18.51 188.43,18.51 188.56,17.5 
				188.56,17.38 188.56,17.5 188.05,18.51 187.93,18.51 187.55,17.38 187.55,17.25 187.55,17.38 187.42,18.38 187.3,18.38 			"/>
			<path style="clip-path:url(#SVGID_00000150104960449183488200000000841591638039559833_);fill:#FFFFFF;" d="M189.82,18.26h-0.63
				l-0.13,0.38h-0.13l0.63-1.26h0.13l0.5,1.51h-0.13L189.82,18.26z M189.44,17.38l-0.38,0.63h0.63L189.44,17.38z"/>
			<polygon style="clip-path:url(#SVGID_00000150104960449183488200000000841591638039559833_);fill:#FFFFFF;" points="191.2,18.76 
				190.57,17.63 190.57,17.5 190.57,17.63 190.45,18.64 190.32,18.64 190.45,17.38 190.57,17.38 191.2,18.51 191.2,18.64 
				191.2,18.51 191.2,17.5 191.33,17.5 			"/>
			<path style="clip-path:url(#SVGID_00000150104960449183488200000000841591638039559833_);fill:#FFFFFF;" d="M192.71,18.89h-0.5
				l0.13-1.26h0.5c0.38,0,0.5,0.13,0.5,0.63S193.09,18.89,192.71,18.89 M192.84,17.5h-0.38l-0.13,1.13h0.38c0.38,0,0.5-0.13,0.5-0.5
				S193.22,17.5,192.84,17.5"/>
			<polygon style="clip-path:url(#SVGID_00000150104960449183488200000000841591638039559833_);fill:#FFFFFF;" points="193.72,17.5 
				193.72,17.5 193.72,18.76 193.59,18.76 			"/>
			<path style="clip-path:url(#SVGID_00000150104960449183488200000000841591638039559833_);fill:#FFFFFF;" d="M194.98,18.76h-0.63
				l-0.13,0.38h-0.13l0.63-1.26h0.13l0.5,1.51h-0.13L194.98,18.76z M194.73,17.88l-0.38,0.63h0.63L194.73,17.88z"/>
			<polygon style="clip-path:url(#SVGID_00000150104960449183488200000000841591638039559833_);fill:#FFFFFF;" points="
				195.61,17.75 195.99,18.89 195.99,19.01 195.99,18.89 196.49,17.88 196.62,17.88 196.49,19.14 196.37,19.14 196.49,18.13 
				196.49,18.01 196.49,18.13 195.99,19.14 195.86,19.14 195.48,18.01 195.48,17.88 195.48,18.01 195.36,19.01 195.23,19.01 			"/>
			<path style="clip-path:url(#SVGID_00000150104960449183488200000000841591638039559833_);fill:#FFFFFF;" d="M198,18.89h-0.63
				l-0.13,0.38h-0.13l0.63-1.26h0.13l0.5,1.51h-0.13L198,18.89z M197.63,18.01l-0.38,0.63h0.63L197.63,18.01z"/>
			<polygon style="clip-path:url(#SVGID_00000150104960449183488200000000841591638039559833_);fill:#FFFFFF;" points="
				199.26,19.39 198.63,18.26 198.63,18.01 198.63,18.13 198.51,19.14 198.38,19.14 198.51,17.88 198.63,17.88 199.26,19.01 
				199.26,19.27 199.26,19.14 199.26,18.01 199.39,18.01 			"/>
			<polygon style="clip-path:url(#SVGID_00000150104960449183488200000000841591638039559833_);fill:#FFFFFF;" points="
				200.27,18.26 200.14,19.52 199.89,19.52 200.27,18.26 199.77,18.26 199.77,18.01 200.77,18.01 200.77,18.13 200.27,18.13 			"/>
			<polygon style="clip-path:url(#SVGID_00000150104960449183488200000000841591638039559833_);fill:#FFFFFF;" points="
				201.78,19.52 201.78,19.52 200.9,19.52 201.03,18.26 201.91,18.26 201.91,18.39 201.28,18.39 201.28,18.89 201.91,18.89 
				201.91,19.02 201.28,19.02 201.28,19.52 			"/>
			<polygon style="clip-path:url(#SVGID_00000150104960449183488200000000841591638039559833_);fill:#FFFFFF;" points="168.9,29.22 
				168.9,29.22 168.4,29.22 168.4,28.34 168.9,28.34 168.4,28.34 168.4,28.71 168.78,28.71 168.4,28.71 168.4,29.09 			"/>
			<polygon style="clip-path:url(#SVGID_00000150104960449183488200000000841591638039559833_);fill:#FFFFFF;" points="
				169.41,28.84 169.53,29.34 169.41,29.34 169.41,28.84 169.03,29.34 168.9,29.34 169.41,28.84 169.03,28.34 169.16,28.34 
				169.41,28.84 169.53,28.46 169.66,28.46 			"/>
			<path style="clip-path:url(#SVGID_00000150104960449183488200000000841591638039559833_);fill:#FFFFFF;" d="M170.04,29.09h-0.13
				v0.25v-0.88h0.38c0.13,0,0.38,0.13,0.38,0.38C170.42,28.84,170.16,29.09,170.04,29.09 M170.04,28.59h-0.13v0.38h0.13
				c0.13,0,0.13,0,0.13-0.13C170.42,28.59,170.16,28.59,170.04,28.59"/>
			<polygon style="clip-path:url(#SVGID_00000150104960449183488200000000841591638039559833_);fill:#FFFFFF;" points="
				170.54,28.59 170.54,28.59 170.54,29.34 			"/>
			<path style="clip-path:url(#SVGID_00000150104960449183488200000000841591638039559833_);fill:#FFFFFF;" d="M171.17,29.09
				l0.13,0.38h-0.13V29.09h-0.25v0.25v-0.88h0.38c0.13,0,0.13,0.13,0.13,0.38C171.42,28.84,171.42,29.09,171.17,29.09 M171.17,28.71
				h-0.13v0.38h0.13c0.13,0,0.13,0,0.13-0.13C171.42,28.71,171.42,28.71,171.17,28.71"/>
			<path style="clip-path:url(#SVGID_00000150104960449183488200000000841591638039559833_);fill:#FFFFFF;" d="M172.05,29.22h-0.38
				l-0.13,0.13l0.38-0.88h0.13l0.38,0.88h-0.25L172.05,29.22z M171.8,28.71l-0.13,0.38h0.38L171.8,28.71z"/>
			<path style="clip-path:url(#SVGID_00000150104960449183488200000000841591638039559833_);fill:#FFFFFF;" d="M173.19,30.23
				L173.19,30.23h0.63v0.38h-1.01v-0.13l0.13-0.13c0.38-0.38,0.63-0.88,0.63-1.13c0-0.13,0-0.38-0.13-0.38c-0.13,0-0.13,0-0.38,0.13
				v-0.38c0.13-0.13,0.38-0.13,0.5-0.13c0.38,0,0.5,0.13,0.5,0.5C173.82,29.34,173.44,29.85,173.19,30.23"/>
			<path style="clip-path:url(#SVGID_00000150104960449183488200000000841591638039559833_);fill:#FFFFFF;" d="M174.45,30.73
				c-0.38,0-0.5-0.38-0.38-1.13c0-0.88,0.13-1.01,0.63-1.01c0.38,0,0.5,0.38,0.5,1.13C174.95,30.48,174.82,30.73,174.45,30.73
				 M174.7,28.84c-0.13,0-0.13,0-0.38,0.63c0,0.63,0,0.88,0.13,0.88c0.13,0,0.13,0,0.38-0.88C174.82,28.84,174.82,28.84,174.7,28.84
				"/>
			<path style="clip-path:url(#SVGID_00000150104960449183488200000000841591638039559833_);fill:#FFFFFF;" d="M175.58,30.35
				L175.58,30.35h0.63v0.38h-1.01V30.6l0.13-0.13c0.38-0.38,0.63-0.88,0.63-1.13c0-0.13,0-0.38-0.13-0.38c-0.13,0-0.13,0-0.38,0.13
				v-0.38c0.13-0.13,0.38-0.13,0.5-0.13c0.38,0,0.5,0.13,0.5,0.5C176.34,29.6,175.96,30.1,175.58,30.35"/>
			<path style="clip-path:url(#SVGID_00000150104960449183488200000000841591638039559833_);fill:#FFFFFF;" d="M176.84,30.86
				c-0.38,0-0.5-0.38-0.38-1.13c0-0.88,0.13-1.01,0.63-1.01c0.38,0,0.5,0.38,0.5,1.13C177.22,30.73,177.09,30.86,176.84,30.86
				 M176.97,29.09c-0.13,0-0.13,0-0.38,0.63c0,0.63,0,0.88,0.13,0.88c0.13,0,0.13,0,0.38-0.88
				C177.09,29.22,177.09,29.09,176.97,29.09"/>
			<path style="clip-path:url(#SVGID_00000150104960449183488200000000841591638039559833_);fill:#FFFFFF;" d="M156.94,34.01h-0.5
				l-0.13,0.5h-0.38l0.63-2.14h0.38l0.38,2.27h-0.38V34.01z M156.56,32.62l-0.13,1.01h0.38L156.56,32.62z"/>
			<polygon style="clip-path:url(#SVGID_00000150104960449183488200000000841591638039559833_);fill:#FFFFFF;" points="158.2,34.26 
				158.2,34.64 157.31,34.64 157.44,32.37 157.82,32.37 157.69,34.38 			"/>
			<path style="clip-path:url(#SVGID_00000150104960449183488200000000841591638039559833_);fill:#FFFFFF;" d="M159.2,34.13h-0.5
				l-0.13,0.5h-0.38l0.63-2.14h0.38l0.38,2.27h-0.38V34.13z M159.08,32.87l-0.13,1.01h0.38L159.08,32.87z"/>
			<polygon style="clip-path:url(#SVGID_00000150104960449183488200000000841591638039559833_);fill:#FFFFFF;" points="
				160.72,34.76 160.21,33.5 160.21,33.38 160.21,33.5 160.09,34.76 159.71,34.76 159.83,32.49 160.21,32.49 160.59,33.75 
				160.59,33.88 160.59,33.75 160.72,32.49 161.09,32.49 160.97,34.76 			"/>
			<path style="clip-path:url(#SVGID_00000150104960449183488200000000841591638039559833_);fill:#FFFFFF;" d="M161.98,34.51h-0.5
				l-0.13,0.5h-0.38l0.63-2.14h0.38l0.38,2.27h-0.38V34.51z M161.85,33.12l-0.13,1.01h0.38L161.85,33.12z"/>
			<path style="clip-path:url(#SVGID_00000150104960449183488200000000841591638039559833_);fill:#FFFFFF;" d="M164.12,35.01
				c-0.13,0-0.38,0.13-0.5,0c-0.5,0-0.63-0.38-0.63-1.13c0-0.88,0.38-1.13,0.88-1.13c0.13,0,0.38,0,0.38,0.13v0.25
				c-0.13,0-0.13-0.13-0.38-0.13c-0.38,0-0.38,0.13-0.5,0.88c0,0.63,0,0.88,0.38,0.88h0.13v-0.88h0.38L164.12,35.01z"/>
			<path style="clip-path:url(#SVGID_00000150104960449183488200000000841591638039559833_);fill:#FFFFFF;" d="M165.25,34.64h-0.5
				l-0.13,0.5h-0.38l0.63-2.14h0.38l0.38,2.27h-0.38V34.64z M165.12,33.38L165,34.38h0.38L165.12,33.38v-0.25V33.38z"/>
			<path style="clip-path:url(#SVGID_00000150104960449183488200000000841591638039559833_);fill:#FFFFFF;" d="M166.64,34.26
				l0.38,1.01h-0.38l-0.13-1.01h-0.13v1.01h-0.38l0.13-2.27h0.5c0.38,0,0.5,0.13,0.5,0.63C166.89,34.01,166.76,34.13,166.64,34.26
				 M166.38,33.38h-0.13v0.63h0.13c0.13,0,0.13,0,0.38-0.38C166.64,33.5,166.64,33.38,166.38,33.38"/>
			<path style="clip-path:url(#SVGID_00000150104960449183488200000000841591638039559833_);fill:#FFFFFF;" d="M168.02,33.5
				c0,0-0.13,0-0.38-0.13c-0.38,0-0.38,0.13-0.5,0.88c0,0.63,0,0.88,0.38,0.88h0.38v0.38h-0.38c-0.5,0-0.63-0.38-0.5-1.13
				C167.01,33.5,167.39,33.25,168.02,33.5c0-0.13,0-0.13,0.25,0H168.02z"/>
			<path style="clip-path:url(#SVGID_00000150104960449183488200000000841591638039559833_);fill:#FFFFFF;" d="M168.4,33.12h0.38
				l-0.13,2.27h-0.38L168.4,33.12z M168.9,32.87l-0.38,0.38h-0.13l0.13-0.38H168.9z"/>
			<path style="clip-path:url(#SVGID_00000150104960449183488200000000841591638039559833_);fill:#FFFFFF;" d="M169.79,35.01h-0.5
				l-0.13,0.5h-0.38l0.63-2.14h0.38l0.38,2.27h-0.38V35.01z M169.41,33.88l-0.13,1.01h0.38L169.41,33.88z"/>
			
				<rect x="187.16" y="12.98" transform="matrix(0.0815 -0.9967 0.9967 0.0815 160.2178 200.4499)" style="clip-path:url(#SVGID_00000150104960449183488200000000841591638039559833_);fill:#FFFFFF;" width="3.4" height="0.63"/>
			<path style="clip-path:url(#SVGID_00000150104960449183488200000000841591638039559833_);fill:#FFFFFF;" d="M194.22,12.34
				c-0.13-0.13-0.5-0.38-0.88-0.5h-0.63c-0.13,0-0.38,0.13-0.5,0.38c-0.13-0.13-0.13-0.38-0.38-0.38c-0.13-0.13-0.38-0.13-0.5-0.13
				h-0.5c-0.13,0-0.13,0-0.38,0.13v-0.13h-0.63l-0.38,3.28h0.63l0.13-2.27c0-0.13,0.13-0.38,0.38-0.5c0.13-0.13,0.38-0.13,0.5-0.13
				c0.13,0,0.38,0.13,0.5,0.13c0.13,0.13,0.13,0.38,0.13,0.5l-0.13,2.27h0.63l0.13-2.27c0-0.13,0.13-0.38,0.13-0.5
				c0.13-0.13,0.38-0.13,0.5-0.13c0.13,0,0.38,0.13,0.5,0.13c0.13,0.13,0.13,0.38,0.13,0.5l-0.13,2.27h0.63l0.13-2.27
				C194.48,12.84,194.35,12.46,194.22,12.34"/>
			<path style="clip-path:url(#SVGID_00000150104960449183488200000000841591638039559833_);fill:#FFFFFF;" d="M198,15.11
				c0,0-0.13-0.13,0-0.13l0.13-1.64c0-0.38-0.13-0.5-0.38-0.88c-0.13-0.13-0.5-0.38-0.88-0.38c-0.38,0-0.63,0-1.01,0.13
				c-0.38,0.13-0.5,0.38-0.5,0.63v0.38h0.63v-0.13c0-0.13,0.13-0.38,0.38-0.38c0.13-0.13,0.38-0.13,0.5-0.13
				c0.13,0,0.38,0.13,0.5,0.13c0.13,0.13,0.13,0.38,0.13,0.5c0,0.13-0.13,0.13-0.38,0.38h-0.63c-0.38,0-0.63,0-1.01,0.13
				c-0.38,0.13-0.5,0.5-0.5,0.63c0,0.38,0,0.5,0.38,0.88c0.13,0.13,0.5,0.38,0.88,0.38h0.63c0.13,0,0.38-0.13,0.5-0.38
				c0,0.13,0.13,0.13,0.13,0.38c0.13,0.13,0.38,0.13,0.38,0.13h0.38v-0.5C198,15.24,198,15.11,198,15.11 M197.12,14.48
				c0,0.13-0.13,0.38-0.38,0.5c-0.13,0.13-0.5,0.13-0.63,0.13c-0.13,0-0.38,0-0.5-0.13c-0.13-0.13-0.13-0.13-0.13-0.38
				s0.13-0.38,0.13-0.38c0.13,0,0.38-0.13,0.5-0.13h0.13c0.38,0,0.63,0,0.88-0.13V14.48z"/>
			<path style="clip-path:url(#SVGID_00000150104960449183488200000000841591638039559833_);fill:#FFFFFF;" d="M201.53,12.97
				c-0.38-0.38-0.5-0.5-1.01-0.5h-0.63c-0.13,0-0.38,0.13-0.38,0.13v-0.13h-0.63l-0.38,3.28h0.63l0.13-2.14
				c0-0.13,0.13-0.38,0.38-0.5c0.13-0.13,0.38-0.13,0.63-0.13c0.13,0,0.5,0.13,0.63,0.38c0.13,0.13,0.13,0.38,0.13,0.5l-0.13,2.14
				h0.63l0.13-2.14C201.91,13.6,201.78,13.35,201.53,12.97"/>
			<path style="clip-path:url(#SVGID_00000150104960449183488200000000841591638039559833_);fill:#FFFFFF;" d="M187.42,13.09
				c-0.13-0.13-0.5-0.38-0.88-0.38c-0.38,0-0.5-0.13-0.63-0.13c-0.13-0.13-0.13-0.13-0.13-0.38c0-0.25,0-0.13,0.13-0.38
				c0.13,0,0.38-0.13,0.5,0c0.13,0,0.38,0.13,0.5,0.13c0.13,0.13,0.13,0.13,0.13,0.38l0.63-0.13c0-0.13-0.13-0.38-0.38-0.5
				c-0.13-0.13-0.5-0.38-1.01-0.38c-0.38,0-0.63,0-1.01,0.13c-0.38,0.13-0.38,0.38-0.38,0.63c0,0.38,0,0.5,0.38,0.63
				c0.13,0.13,0.5,0.38,0.88,0.38c0.38,0,0.5,0.13,0.63,0.13c0.13,0.13,0.38,0.38,0.38,0.5c0,0.13-0.13,0.13-0.13,0.38
				c-0.13,0-0.38,0.13-0.63,0c-0.13,0-0.5-0.13-0.5-0.13c-0.13-0.13-0.13-0.38-0.13-0.5l-0.63,0.13c0,0.13,0.13,0.5,0.38,0.63
				c0.38,0.38,0.63,0.38,1.01,0.5c0.38,0,0.88,0,1.01-0.13c0.38-0.13,0.5-0.5,0.5-0.88C187.8,13.6,187.67,13.35,187.42,13.09"/>
			<polygon style="clip-path:url(#SVGID_00000150104960449183488200000000841591638039559833_);fill:#E6E6E6;" points="184.4,12.97 
				182.38,14.61 182.26,14.61 180.62,12.59 180.62,12.46 182.64,10.83 182.76,10.83 184.4,12.84 			"/>
			<path style="clip-path:url(#SVGID_00000150104960449183488200000000841591638039559833_);fill:#FFFFFF;" d="M184.15,12.46
				c-1.13,0-2.52,0.38-3.28,0.5l-0.38-0.38v-0.13l2.02-1.64h0.13L184.15,12.46z"/>
			<path style="clip-path:url(#SVGID_00000150104960449183488200000000841591638039559833_);fill:#808083;" d="M193.97,50.89
				l-51.9-5.04c-1.64-0.13-2.77-1.64-2.65-3.28l3.15-30.86c0.13-1.64,1.64-2.77,3.28-2.65l51.9,5.04c1.64,0.13,2.77,1.64,2.65,3.28
				l-3.15,30.86C197.12,49.75,195.61,51.01,193.97,50.89"/>
			<path style="clip-path:url(#SVGID_00000150104960449183488200000000841591638039559833_);fill:#919395;" d="M197.25,48.11
				l3.15-30.86c0.13-1.64-1.01-3.15-2.65-3.28l-51.9-5.04c-1.64-0.13-3.15,1.01-3.28,2.65l17.26,21.29L197.25,48.11z"/>
			<path style="clip-path:url(#SVGID_00000150104960449183488200000000841591638039559833_);fill:#A5A7AA;" d="M145.98,8.81
				l51.9,5.04c1.64,0.13,2.77,1.64,2.65,3.28"/>
			<path style="clip-path:url(#SVGID_00000150104960449183488200000000841591638039559833_);fill:#FFFFFF;" d="M148.5,31.74h0.63
				v-0.88l-1.01-0.13l0.13-1.51l1.26,0.13h0.13v0.13v0.13h-0.13h-0.88v0.88h0.63c0.13,0,0.13,0,0.13,0.13v0.13v0.88
				c0,0.13,0,0.13-0.13,0.13h-0.13H148.5h-0.13l-0.13-0.13c0,0-0.13-0.13,0-0.13v-0.13h0.13h0.13V31.74"/>
			<path style="clip-path:url(#SVGID_00000150104960449183488200000000841591638039559833_);fill:#FFFFFF;" d="M150.39,31.86
				l0.13-2.02c0-0.13,0-0.13,0.13-0.13h0.13l1.01,0.13c0,0,0.13,0,0.13,0.13v0.13l-0.13,2.02c0,0.13,0,0.13-0.13,0.13h-0.13
				l-1.01-0.13C150.39,32.12,150.39,32.12,150.39,31.86 M151.77,30.1l-1.01-0.13l-0.13,1.76l1.01,0.13L151.77,30.1z"/>
			<path style="clip-path:url(#SVGID_00000150104960449183488200000000841591638039559833_);fill:#FFFFFF;" d="M154.17,32.49
				l-1.51-0.13l0.13-1.13c0-0.13,0-0.13,0.13-0.13h0.13l1.01,0.13v-0.88l-1.13-0.13h-0.13V30.1v-0.13h0.13l1.13,0.13
				c0.13,0,0.13,0,0.13,0.13v0.13v0.88c0,0.13,0,0.13-0.13,0.13h-0.13l-1.01-0.13v0.88l1.13,0.13h0.13v0.13
				C154.29,32.37,154.29,32.49,154.17,32.49"/>
			<path style="clip-path:url(#SVGID_00000150104960449183488200000000841591638039559833_);fill:#FFFFFF;" d="M155.17,32.37
				l0.13-2.02c0-0.13,0-0.13,0.13-0.13h0.13l1.01,0.13c0,0,0.13,0,0.13,0.13v0.13l-0.13,2.02c0,0.13,0,0.13-0.13,0.13h-0.13
				l-1.01-0.13C155.17,32.62,155.17,32.62,155.17,32.37 M156.56,30.48l-1.01-0.13l-0.13,1.76l1.01,0.13L156.56,30.48z"/>
			<path style="clip-path:url(#SVGID_00000150104960449183488200000000841591638039559833_);fill:#FFFFFF;" d="M160.09,32.87h0.5
				l0.13-1.76h-0.5h-0.13v-0.13v-0.13h0.13h0.88L160.97,33h0.38v-0.63v-0.13h0.13h0.13v0.13v0.88v0.13h-0.13l-1.26-0.13h-0.13v-0.13
				C159.83,32.87,159.83,32.87,160.09,32.87C159.83,32.87,159.83,32.87,160.09,32.87"/>
			<path style="clip-path:url(#SVGID_00000150104960449183488200000000841591638039559833_);fill:#FFFFFF;" d="M162.23,33l0.13-2.02
				c0-0.13,0-0.13,0.13-0.13h0.13l1.01,0.13c0,0,0.13,0,0.13,0.13v0.13l-0.13,2.02c0,0.13,0,0.13-0.13,0.13h-0.13l-1.01-0.13
				C162.23,33.25,162.23,33.25,162.23,33C162.23,33.12,162.23,33.12,162.23,33 M163.61,31.23l-1.01-0.13l-0.13,1.76l1.01,0.13
				L163.61,31.23z"/>
			<path style="clip-path:url(#SVGID_00000150104960449183488200000000841591638039559833_);fill:#FFFFFF;" d="M164.75,33.38h0.5
				l0.13-1.76h-0.5h-0.13v-0.13v-0.13h0.13h0.88l-0.13,2.14h0.38v-0.63v-0.13h0.13h0.13v0.13v0.88v0.13h-0.13l-1.26-0.13h-0.13
				v-0.13C164.5,33.38,164.62,33.38,164.75,33.38C164.62,33.38,164.62,33.12,164.75,33.38"/>
			<path style="clip-path:url(#SVGID_00000150104960449183488200000000841591638039559833_);fill:#FFFFFF;" d="M168.4,34.01
				l-1.51-0.13l0.13-1.13c0-0.13,0-0.13,0.13-0.13h0.13l1.01,0.13v-0.88l-1.13-0.13h-0.13v-0.13v-0.13h0.13l1.13,0.13
				c0.13,0,0.13,0,0.13,0.13v0.13v0.88c0,0.13,0,0.13-0.13,0.13h-0.13l-1.01-0.13v0.88l1.13,0.13h0.13v0.13
				C168.53,33.88,168.53,33.88,168.4,34.01"/>
			<path style="clip-path:url(#SVGID_00000150104960449183488200000000841591638039559833_);fill:#FFFFFF;" d="M171.68,34.01
				l0.13-2.02c0-0.13,0-0.13,0.13-0.13h0.13l1.01,0.13c0.13,0,0.13,0,0.13,0.13v0.13l-0.13,2.02c0,0.13,0,0.13-0.13,0.13h-0.13
				l-1.01-0.13C171.68,34.26,171.68,34.26,171.68,34.01 M173.19,32.12l-1.01-0.13l-0.13,1.76l1.01,0.13L173.19,32.12z"/>
			<path style="clip-path:url(#SVGID_00000150104960449183488200000000841591638039559833_);fill:#FFFFFF;" d="M173.94,34.13
				l0.13-2.02c0-0.13,0-0.13,0.13-0.13h0.13l1.13,0.13c0,0,0.13,0,0.13,0.13v0.13l-0.13,2.02c0,0.13,0,0.13-0.13,0.13h-0.13
				l-1.01-0.13C174.07,34.38,174.07,34.38,173.94,34.13C173.94,34.26,173.94,34.26,173.94,34.13 M175.45,32.49l-1.01-0.13
				l-0.13,1.76l1.01,0.13L175.45,32.49z"/>
			<path style="clip-path:url(#SVGID_00000150104960449183488200000000841591638039559833_);fill:#FFFFFF;" d="M176.46,34.51
				l0.13-2.02c0-0.13,0-0.13,0.13-0.13h0.13l1.01,0.13c0,0,0.13,0,0.13,0.13v0.13l-0.13,2.02c0,0.13,0,0.13-0.13,0.13h-0.13
				l-1.01-0.13C176.46,34.76,176.46,34.76,176.46,34.51 M177.97,32.62l-1.01-0.13l-0.13,1.76l1.01,0.13L177.97,32.62z"/>
			<path style="clip-path:url(#SVGID_00000150104960449183488200000000841591638039559833_);fill:#FFFFFF;" d="M179.36,34.64h0.63
				v-0.88l-1.01-0.13l0.13-1.51l1.13,0.13h0.13v0.13v0.13h-0.13h-0.88v0.88h0.63c0.13,0,0.13,0,0.13,0.13v0.13v0.88
				c0,0.13,0,0.13-0.13,0.13h-0.13h-0.63h-0.13l-0.13-0.13c0,0-0.13-0.13,0-0.13v-0.13h0.13h0.13L179.36,34.64"/>
			<path style="clip-path:url(#SVGID_00000150104960449183488200000000841591638039559833_);fill:#FFFFFF;" d="M185.28,33.38v0.63
				c0,0.13,0,0.13-0.13,0.38c0,0.13,0.13,0.13,0.13,0.38v0.63c0,0.13,0,0.13-0.13,0.13h-0.13l-1.13-0.13h-0.13v-0.13v-0.13h0.13
				l1.13,0.13v-0.63v-0.13h-0.13h-0.63h-0.13v-0.13v-0.13h0.13h0.63h0.13v-0.13v-1.01L183.89,33h-0.13v-0.13v-0.13h0.13l1.13,0.13
				c0.13,0,0.13,0,0.13,0.13C185.15,33.12,185.28,33.38,185.28,33.38"/>
			<path style="clip-path:url(#SVGID_00000150104960449183488200000000841591638039559833_);fill:#FFFFFF;" d="M187.8,33.63v0.63
				c0,0.13,0,0.13-0.13,0.38c0,0.13,0.13,0.13,0.13,0.38v0.63c0,0.13,0,0.13-0.13,0.13h-0.13l-1.13-0.13h-0.13v-0.13v-0.13h0.13
				l1.13,0.13v-0.63v-0.13h-0.13h-0.63h-0.13v-0.13v-0.13h0.13h0.63h0.13c0.13,0,0,0,0-0.13v-0.63l-1.13-0.13h-0.13V33.5v-0.13h0.13
				l1.13,0.13c0.13,0,0.13,0,0.13,0.13C187.8,33.5,187.8,33.5,187.8,33.63"/>
			<path style="clip-path:url(#SVGID_00000150104960449183488200000000841591638039559833_);fill:#FFFFFF;" d="M188.3,35.64
				l0.13-2.02c0-0.13,0-0.13,0.13-0.13h0.13l1.01,0.13c0.13,0,0.13,0,0.13,0.13v0.13l-0.13,2.02c0,0.13,0,0.13-0.13,0.13h-0.13
				l-1.01-0.13C188.3,35.9,188.3,35.9,188.3,35.64 M189.82,33.88h-1.01l-0.25,1.76l1.01,0.13L189.82,33.88z"/>
			<path style="clip-path:url(#SVGID_00000150104960449183488200000000841591638039559833_);fill:#FFFFFF;" d="M190.7,35.77
				l0.13-2.02c0-0.13,0-0.13,0.13-0.13h0.13l1.01,0.13c0,0,0.13,0,0.13,0.13v0.13l-0.13,2.02c0,0.13,0,0.13-0.13,0.13h-0.13
				l-1.01-0.13C190.7,36.02,190.7,36.02,190.7,35.77C190.7,35.89,190.7,35.89,190.7,35.77 M192.21,34.13l-1.01-0.13l-0.13,1.76
				l1.01,0.13L192.21,34.13z"/>
			<path style="clip-path:url(#SVGID_00000150104960449183488200000000841591638039559833_);fill:#FFFFFF;" d="M173.06,23.93
				c0,0-0.13-0.13-0.38-0.13c-0.38,0-0.5,0.13-0.5,0.5c0,0.5,0.13,0.63,0.5,0.63h0.38v0.13h-0.38c-0.5,0-0.63-0.38-0.5-0.88
				c0-0.5,0.38-0.63,0.63-0.63C172.81,23.8,173.06,23.8,173.06,23.93"/>
			<path style="clip-path:url(#SVGID_00000150104960449183488200000000841591638039559833_);fill:#FFFFFF;" d="M173.82,24.81
				l0.38,0.63h-0.13L173.82,24.81h-0.5v0.63h-0.13l0.13-1.51h0.5c0.38,0,0.5,0.13,0.38,0.5C174.19,24.68,173.94,24.68,173.82,24.81
				 M173.82,23.93h-0.38v0.63h0.38c0.13,0,0.38,0,0.38-0.38C174.19,24.18,173.94,23.93,173.82,23.93"/>
			<polygon style="clip-path:url(#SVGID_00000150104960449183488200000000841591638039559833_);fill:#FFFFFF;" points="
				175.45,25.44 175.45,25.44 174.45,25.44 174.57,23.93 175.45,24.05 175.45,24.31 174.7,24.31 174.7,24.81 175.33,24.81 
				175.33,24.94 174.7,24.94 174.7,25.57 			"/>
			<path style="clip-path:url(#SVGID_00000150104960449183488200000000841591638039559833_);fill:#FFFFFF;" d="M176.08,25.57h-0.5
				l0.13-1.51h0.5c0.5,0,0.63,0.38,0.5,0.88C176.84,25.44,176.59,25.57,176.08,25.57 M176.34,24.31h-0.38l-0.13,1.13h0.38
				c0.38,0,0.5-0.13,0.5-0.5C176.84,24.43,176.59,24.31,176.34,24.31"/>
			<polygon style="clip-path:url(#SVGID_00000150104960449183488200000000841591638039559833_);fill:#FFFFFF;" points="
				177.22,24.31 177.22,24.31 177.22,25.82 177.09,25.82 			"/>
			<path style="clip-path:url(#SVGID_00000150104960449183488200000000841591638039559833_);fill:#FFFFFF;" d="M178.1,25.82
				c-0.13,0-0.38,0-0.38-0.13v-0.13C177.72,25.57,177.97,25.82,178.1,25.82c0.38-0.25,0.38-0.25,0.38-0.38
				c0-0.38-0.63-0.38-0.63-0.88c0-0.13,0.13-0.38,0.5-0.38c0.13,0,0.38,0,0.38,0.13v0.13c-0.13,0-0.13-0.13-0.38-0.13
				c-0.13,0-0.38,0.13-0.38,0.13c0,0.38,0.88,0.38,0.63,0.88C178.6,25.82,178.48,25.94,178.1,25.82"/>
			<polygon style="clip-path:url(#SVGID_00000150104960449183488200000000841591638039559833_);fill:#FFFFFF;" points="
				179.11,24.43 179.11,24.43 179.11,25.94 178.98,25.94 			"/>
			<polygon style="clip-path:url(#SVGID_00000150104960449183488200000000841591638039559833_);fill:#FFFFFF;" points="
				179.74,24.43 180.12,25.57 180.12,25.69 180.12,25.57 180.75,24.43 180.87,24.43 180.75,25.94 180.62,25.94 180.75,24.81 
				180.75,24.68 180.75,24.81 180.24,25.94 180.12,25.94 179.74,24.81 179.74,24.68 179.74,24.81 179.61,25.94 179.49,25.94 			"/>
			<path style="clip-path:url(#SVGID_00000150104960449183488200000000841591638039559833_);fill:#FFFFFF;" d="M182.01,25.82h-0.63
				l-0.13,0.38H181l0.63-1.51h0.13l0.5,1.51L182.01,25.82z M181.75,24.94l-0.38,0.63h0.63L181.75,24.94z"/>
			<polygon style="clip-path:url(#SVGID_00000150104960449183488200000000841591638039559833_);fill:#FFFFFF;" points="
				183.52,26.45 182.89,25.31 182.89,25.19 182.89,25.31 182.76,26.45 182.63,26.45 182.76,24.94 182.89,24.94 183.52,26.07 
				183.52,26.2 183.52,26.07 183.64,24.94 183.77,24.94 			"/>
			<path style="clip-path:url(#SVGID_00000150104960449183488200000000841591638039559833_);fill:#FFFFFF;" d="M185.28,25.94h-0.38
				v0.63h-0.13l0.13-1.51h0.5c0.38,0,0.5,0.13,0.5,0.5C185.78,25.82,185.66,25.94,185.28,25.94 M185.28,25.06h-0.38v0.63h0.38
				c0.13,0,0.38,0,0.38-0.38C185.66,25.31,185.53,25.06,185.28,25.06"/>
			<path style="clip-path:url(#SVGID_00000150104960449183488200000000841591638039559833_);fill:#FFFFFF;" d="M186.67,25.94
				l0.38,0.63h-0.13L186.67,25.94h-0.5v0.63h-0.13l0.13-1.51h0.5c0.38,0,0.5,0.13,0.38,0.5C186.92,25.94,186.79,25.94,186.67,25.94
				 M186.67,25.31h-0.38v0.63h0.38c0.13,0,0.38,0,0.38-0.38C186.92,25.44,186.79,25.31,186.67,25.31"/>
			<polygon style="clip-path:url(#SVGID_00000150104960449183488200000000841591638039559833_);fill:#FFFFFF;" points="188.05,26.7 
				188.05,26.7 187.04,26.7 187.17,25.19 188.05,25.31 188.05,25.57 187.3,25.57 187.3,26.07 187.93,26.07 187.93,26.2 187.3,26.2 
				187.3,26.82 			"/>
			<polygon style="clip-path:url(#SVGID_00000150104960449183488200000000841591638039559833_);fill:#FFFFFF;" points="
				188.81,25.44 189.19,26.57 189.19,26.7 189.19,26.57 189.82,25.44 189.94,25.44 189.82,26.95 189.69,26.95 189.82,25.82 
				189.82,25.57 189.82,25.69 189.31,26.82 189.19,26.82 188.81,25.69 188.81,25.44 188.81,25.69 188.68,26.82 188.56,26.82 			"/>
			<polygon style="clip-path:url(#SVGID_00000150104960449183488200000000841591638039559833_);fill:#FFFFFF;" points="
				190.45,25.57 190.45,25.57 190.45,27.08 190.32,27.08 			"/>
			<polygon style="clip-path:url(#SVGID_00000150104960449183488200000000841591638039559833_);fill:#FFFFFF;" points="191.7,27.08 
				191.7,27.08 190.7,27.08 190.82,25.57 191.7,25.69 191.7,25.82 190.82,25.82 190.82,26.32 191.45,26.32 191.45,26.45 
				190.82,26.45 190.82,27.08 			"/>
			<path style="clip-path:url(#SVGID_00000150104960449183488200000000841591638039559833_);fill:#FFFFFF;" d="M192.71,26.57
				l0.38,0.63h-0.13L192.71,26.57h-0.5v0.63h-0.13l0.13-1.51h0.5c0.38,0,0.5,0.13,0.38,0.5C193.09,26.45,193.09,26.57,192.71,26.57
				 M192.71,25.94h-0.38v0.63h0.38c0.13,0,0.38,0,0.38-0.38C193.09,25.94,192.84,25.94,192.71,25.94"/>
			<polygon style="clip-path:url(#SVGID_00000150104960449183488200000000841591638039559833_);fill:#FFFFFF;" points="
				160.09,36.15 160.09,36.15 159.58,36.15 159.71,35.26 160.21,35.26 159.71,35.26 159.71,35.64 160.09,35.64 159.71,35.64 
				159.71,36.02 			"/>
			<polygon style="clip-path:url(#SVGID_00000150104960449183488200000000841591638039559833_);fill:#FFFFFF;" points="160.59,35.9 
				160.72,36.4 160.59,36.4 160.59,35.9 160.21,36.27 160.09,36.27 160.59,35.9 160.21,35.39 160.34,35.39 160.59,35.9 
				160.97,35.39 161.09,35.39 			"/>
			<path style="clip-path:url(#SVGID_00000150104960449183488200000000841591638039559833_);fill:#FFFFFF;" d="M161.35,36.15h-0.13
				v0.38l0.13-0.88h0.38c0.13,0,0.38,0.13,0.38,0.38C161.47,35.89,161.47,36.15,161.35,36.15 M161.35,35.64h-0.13v0.38h0.13
				c0.13,0,0.13,0,0.13-0.13C161.47,35.64,161.47,35.64,161.35,35.64"/>
			<polygon style="clip-path:url(#SVGID_00000150104960449183488200000000841591638039559833_);fill:#FFFFFF;" points="
				161.85,35.64 161.85,35.64 161.85,36.52 			"/>
			<path style="clip-path:url(#SVGID_00000150104960449183488200000000841591638039559833_);fill:#FFFFFF;" d="M162.35,36.15
				l0.13,0.5h-0.13V36.15h-0.38v0.38l0.13-0.88h0.38c0.13,0,0.13,0.13,0.13,0.38C162.61,35.9,162.48,36.15,162.35,36.15
				 M162.35,35.77h-0.13v0.38h0.13c0.13,0,0.13,0,0.13-0.13C162.48,35.77,162.48,35.77,162.35,35.77"/>
			<path style="clip-path:url(#SVGID_00000150104960449183488200000000841591638039559833_);fill:#FFFFFF;" d="M163.36,36.27h-0.38
				l-0.13,0.13l0.38-0.88h0.13l0.13,0.88L163.36,36.27z M162.98,35.77l-0.13,0.38h0.38L162.98,35.77z"/>
			<path style="clip-path:url(#SVGID_00000150104960449183488200000000841591638039559833_);fill:#FFFFFF;" d="M164.37,37.41
				L164.37,37.41H165v0.38l-1.01-0.13v-0.13l0.13-0.13c0.38-0.38,0.63-0.88,0.63-1.13c0-0.13,0-0.38-0.13-0.38
				c-0.13,0-0.13,0-0.38,0.13v-0.38c0.13-0.13,0.38-0.13,0.5-0.13c0.38,0,0.5,0.13,0.5,0.5C165,36.4,164.75,36.9,164.37,37.41"/>
			<path style="clip-path:url(#SVGID_00000150104960449183488200000000841591638039559833_);fill:#FFFFFF;" d="M165.63,37.78
				c-0.38,0-0.5-0.38-0.38-1.13c0.13-0.76,0.13-1.01,0.63-1.01c0.38,0,0.5,0.38,0.38,1.13C166.13,37.53,166.01,37.91,165.63,37.78
				 M165.75,35.9c-0.13,0-0.13,0-0.38,0.63c0,0.63,0,0.88,0.13,0.88c0.13,0,0.13,0,0.38-0.88C166.01,36.15,166.01,35.9,165.75,35.9"
				/>
			<path style="clip-path:url(#SVGID_00000150104960449183488200000000841591638039559833_);fill:#FFFFFF;" d="M166.76,37.53
				L166.76,37.53h0.63v0.38l-1.01-0.13v-0.13l0.13-0.13c0.38-0.38,0.63-0.88,0.63-1.13c0-0.13,0-0.38-0.13-0.38
				c-0.13,0-0.13,0-0.38,0.13v-0.38c0.13-0.13,0.38-0.13,0.5-0.13c0.38,0,0.5,0.13,0.5,0.5C167.39,36.78,167.14,37.15,166.76,37.53"
				/>
			<path style="clip-path:url(#SVGID_00000150104960449183488200000000841591638039559833_);fill:#FFFFFF;" d="M167.9,38.04
				c-0.38,0-0.5-0.38-0.38-1.13c0.13-0.88,0.13-1.01,0.63-1.01c0.38,0,0.5,0.38,0.38,1.13C168.53,37.91,168.27,38.04,167.9,38.04
				 M168.02,36.27c-0.13,0-0.13,0-0.38,0.63c0,0.63,0,0.88,0.13,0.88c0.13,0,0.13,0,0.38-0.88
				C168.4,36.27,168.27,36.27,168.02,36.27"/>
			<path style="clip-path:url(#SVGID_00000150104960449183488200000000841591638039559833_);fill:#FFFFFF;" d="M148.37,40.93h-0.5
				l-0.13,0.5h-0.38l0.63-2.14h0.38l0.13,2.27h-0.38L148.37,40.93z M148.24,39.55l-0.38,1.01h0.38V39.55z"/>
			<polygon style="clip-path:url(#SVGID_00000150104960449183488200000000841591638039559833_);fill:#FFFFFF;" points="
				149.76,41.19 149.76,41.56 148.87,41.44 149,39.17 149.38,39.17 149.25,41.19 			"/>
			<path style="clip-path:url(#SVGID_00000150104960449183488200000000841591638039559833_);fill:#FFFFFF;" d="M150.64,41.06h-0.5
				l-0.13,0.5h-0.38l0.63-2.14h0.38l0.13,2.27h-0.38L150.64,41.06z M150.51,39.67l-0.38,1.01h0.38V39.67z"/>
			<polygon style="clip-path:url(#SVGID_00000150104960449183488200000000841591638039559833_);fill:#FFFFFF;" points="
				152.15,41.69 151.77,40.18 151.77,40.05 151.77,40.18 151.65,41.44 151.27,41.44 151.39,39.17 151.77,39.17 152.15,40.43 
				152.15,40.68 152.15,40.56 152.28,39.3 152.65,39.3 152.53,41.56 			"/>
			<path style="clip-path:url(#SVGID_00000150104960449183488200000000841591638039559833_);fill:#FFFFFF;" d="M153.54,41.31h-0.5
				l-0.13,0.5h-0.38l0.63-2.14h0.38l0.13,2.27h-0.38L153.54,41.31z M153.28,40.05l-0.38,1.01h0.38V40.05z"/>
			<path style="clip-path:url(#SVGID_00000150104960449183488200000000841591638039559833_);fill:#FFFFFF;" d="M155.55,42.07
				c-0.13,0-0.38,0.13-0.5,0c-0.5,0-0.63-0.38-0.5-1.13c0.13-0.88,0.38-1.13,0.88-1.13c0.13,0,0.38,0,0.38,0.13v0.38
				c-0.13,0-0.13-0.13-0.38-0.13c-0.38,0-0.5,0.13-0.5,0.88c0,0.76,0,0.88,0.38,0.88h0.13l0.13-0.88h0.38L155.55,42.07z"/>
			<path style="clip-path:url(#SVGID_00000150104960449183488200000000841591638039559833_);fill:#FFFFFF;" d="M156.81,41.69h-0.5
				l-0.13,0.5h-0.38l0.63-2.14h0.38l0.13,2.27h-0.38L156.81,41.69z M156.56,40.43l-0.38,1.01h0.38V40.43z"/>
			<path style="clip-path:url(#SVGID_00000150104960449183488200000000841591638039559833_);fill:#FFFFFF;" d="M158.07,41.31
				l0.38,1.01h-0.38l-0.13-1.01h-0.13l-0.13,1.01h-0.38l0.13-2.27h0.5c0.38,0,0.5,0.13,0.5,0.63
				C158.45,41.06,158.2,41.19,158.07,41.31 M157.94,40.43h-0.13v0.63h0.13c0.13,0,0.13,0,0.38-0.38
				C158.2,40.43,158.07,40.43,157.94,40.43"/>
			<path style="clip-path:url(#SVGID_00000150104960449183488200000000841591638039559833_);fill:#FFFFFF;" d="M159.58,40.56
				c0,0-0.13,0-0.38-0.13c-0.38,0-0.38,0.13-0.5,0.88c0,0.63,0,0.88,0.38,0.88h0.38v0.38h-0.38c-0.5,0-0.63-0.38-0.5-1.26
				c0-0.88,0.38-1.13,0.88-1.01c0.13,0,0.13,0,0.38,0.13L159.58,40.56z"/>
			<path style="clip-path:url(#SVGID_00000150104960449183488200000000841591638039559833_);fill:#FFFFFF;" d="M159.83,40.18h0.38
				l-0.13,2.27h-0.38L159.83,40.18z M160.59,39.93l-0.38,0.38h-0.13l0.13-0.38H160.59z"/>
			<path style="clip-path:url(#SVGID_00000150104960449183488200000000841591638039559833_);fill:#FFFFFF;" d="M161.22,42.07h-0.5
				l-0.13,0.5h-0.38l0.63-2.14h0.38l0.13,2.27h-0.38L161.22,42.07z M160.97,40.93l-0.38,1.01h0.38V40.93v-0.25V40.93z"/>
			
				<rect x="178.93" y="20.45" transform="matrix(0.0989 -0.9951 0.9951 0.0989 142.1064 198.4501)" style="clip-path:url(#SVGID_00000150104960449183488200000000841591638039559833_);fill:#FFFFFF;" width="3.4" height="0.63"/>
			<path style="clip-path:url(#SVGID_00000150104960449183488200000000841591638039559833_);fill:#FFFFFF;" d="M186.04,19.9
				c-0.13-0.38-0.5-0.38-0.88-0.5h-0.63c-0.13,0-0.38,0.13-0.5,0.38c-0.13-0.13-0.13-0.38-0.38-0.38c-0.13-0.13-0.38-0.13-0.5-0.13
				h-0.5c-0.13,0-0.13,0-0.38,0.13v-0.13h-0.63l-0.38,3.28h0.63l0.13-2.27c0-0.13,0.13-0.38,0.38-0.5c0.13-0.13,0.38-0.13,0.5-0.13
				c0.13,0,0.38,0.13,0.5,0.13c0.13,0.13,0.13,0.38,0.13,0.5l-0.13,2.27h0.63l0.13-2.27c0-0.13,0.13-0.38,0.13-0.5
				c0.13-0.13,0.38-0.13,0.5-0.13c0.13,0,0.38,0.13,0.5,0.13c0.13,0.13,0.13,0.38,0.13,0.5l-0.13,2.27h0.63l0.13-2.27
				C186.29,20.4,186.16,20.02,186.04,19.9"/>
			<path style="clip-path:url(#SVGID_00000150104960449183488200000000841591638039559833_);fill:#FFFFFF;" d="M189.82,22.67v-0.13
				l0.13-1.64c0-0.38-0.13-0.5-0.38-0.88c-0.13-0.13-0.5-0.38-0.88-0.38c-0.38,0-0.63,0-1.01,0.13c-0.38,0.13-0.5,0.38-0.5,0.63
				v0.38h0.63v-0.13c0-0.13,0.13-0.38,0.38-0.38c0.13-0.13,0.38-0.13,0.5-0.13c0.13,0,0.38,0.13,0.5,0.13
				c0.13,0.13,0.13,0.38,0.13,0.5c0,0.13-0.13,0.13-0.38,0.38h-0.63c-0.38,0-0.63,0-1.01,0.13c-0.38,0.13-0.5,0.38-0.5,0.63
				c0,0.25,0,0.5,0.38,0.88c0.13,0.13,0.5,0.38,0.88,0.38h0.63c0.13,0,0.38-0.13,0.5-0.38c0,0.13,0.13,0.13,0.13,0.38
				c0.13,0.13,0.38,0.13,0.38,0.13h0.38v-0.5C189.82,22.79,189.82,22.79,189.82,22.67 M188.93,22.04c0,0.13-0.13,0.38-0.38,0.5
				c-0.13,0.13-0.5,0.13-0.63,0.13c-0.13,0-0.38,0-0.5-0.13c-0.13-0.13-0.13-0.13-0.13-0.38c0-0.13,0.13-0.38,0.13-0.38
				c0.13,0,0.38-0.13,0.5-0.13h0.13c0.38,0,0.63,0,0.88-0.13V22.04z"/>
			<path style="clip-path:url(#SVGID_00000150104960449183488200000000841591638039559833_);fill:#FFFFFF;" d="M193.34,20.65
				c-0.13-0.38-0.5-0.5-1.01-0.5h-0.63c-0.13,0-0.38,0.13-0.38,0.13v-0.13h-0.63l-0.38,3.28h0.63l0.13-2.14
				c0-0.13,0.13-0.38,0.38-0.5c0.13-0.13,0.38-0.13,0.63-0.13c0.13,0,0.5,0.13,0.63,0.38c0.13,0.13,0.13,0.38,0.13,0.5l-0.13,2.14
				h0.63l0.13-2.14C193.72,21.16,193.72,20.9,193.34,20.65"/>
			<path style="clip-path:url(#SVGID_00000150104960449183488200000000841591638039559833_);fill:#FFFFFF;" d="M179.23,20.53
				c-0.13-0.13-0.5-0.38-0.88-0.38c-0.38,0-0.5-0.13-0.63-0.13c-0.13-0.13-0.13-0.13-0.13-0.38c0-0.13,0-0.13,0.13-0.38
				c0.13,0,0.38-0.13,0.5,0c0.13,0,0.38,0.13,0.5,0.13c0.13,0.13,0.13,0.13,0.13,0.38l0.63-0.13c0-0.13-0.13-0.38-0.38-0.5
				c-0.13-0.13-0.5-0.38-1.01-0.5c-0.38,0-0.63,0-1.01,0.13c-0.38,0.13-0.38,0.38-0.5,0.63c0,0.38,0,0.5,0.38,0.88
				c0.13,0.13,0.5,0.38,0.88,0.38s0.5,0.13,0.63,0.13c0.13,0.13,0.38,0.38,0.38,0.5c0,0.13-0.13,0.13-0.13,0.38
				c-0.13,0-0.38,0.13-0.63,0c-0.13,0-0.5-0.13-0.5-0.38c-0.13-0.13-0.13-0.38-0.13-0.5l-0.63,0.13c0,0.13,0.13,0.5,0.38,0.63
				c0.13,0.38,0.63,0.38,1.01,0.5c0.38,0,0.88,0,1.01-0.13c0.38-0.13,0.5-0.5,0.5-0.63C179.61,21.03,179.61,20.65,179.23,20.53"/>
			<path style="clip-path:url(#SVGID_00000150104960449183488200000000841591638039559833_);fill:#E6E6E6;" d="M176.08,20.4
				l-2.02,1.64h-0.13l-1.64-2.02V19.9l2.02-1.64h0.13l1.64,2.02C176.34,20.15,176.08,20.4,176.08,20.4"/>
			<path style="clip-path:url(#SVGID_00000150104960449183488200000000841591638039559833_);fill:#FFFFFF;" d="M175.96,19.9
				c-1.13,0-2.52,0.13-3.28,0.5l-0.38-0.38V19.9l2.02-1.64h0.13L175.96,19.9z"/>
			<path style="clip-path:url(#SVGID_00000150104960449183488200000000841591638039559833_);fill:#104C97;" d="M185.15,58.44
				l-51.9-4.91c-1.64-0.13-2.77-1.64-2.65-3.28l2.9-30.86c0.13-1.64,1.64-2.77,3.28-2.65l51.9,4.91c1.64,0.13,2.77,1.64,2.65,3.28
				l-2.9,30.86C188.3,57.31,186.79,58.57,185.15,58.44"/>
			<path style="clip-path:url(#SVGID_00000150104960449183488200000000841591638039559833_);fill:#0767B0;" d="M188.43,55.67
				l2.9-30.86c0.13-1.64-1.01-3.15-2.65-3.28l-51.77-4.91c-1.64-0.13-3.15,1.01-3.28,2.65l17.38,21.29L188.43,55.67z"/>
			<path style="clip-path:url(#SVGID_00000150104960449183488200000000841591638039559833_);fill:#0E7DC1;" d="M136.78,16.75
				l51.9,4.91c1.64,0.13,2.77,1.64,2.65,3.28"/>
			<path style="clip-path:url(#SVGID_00000150104960449183488200000000841591638039559833_);fill:#FFFFFF;" d="M139.55,39.42h0.63
				v-0.88l-1.01-0.13l0.13-1.51l1.13,0.13h0.13v0.13v0.13h-0.13h-0.88v0.88h0.63c0.13,0,0.13,0,0.13,0.13v0.13v1.01
				c0,0.13,0,0.13-0.13,0.13h-0.13h-0.63h-0.13l-0.13-0.13l-0.13-0.13v-0.13h0.13h0.13L139.55,39.42"/>
			<path style="clip-path:url(#SVGID_00000150104960449183488200000000841591638039559833_);fill:#FFFFFF;" d="M141.32,39.55
				l0.13-2.02c0-0.13,0-0.13,0.13-0.13h0.13l1.01,0.13c0.13,0,0.13,0,0.13,0.13v0.13l-0.13,2.02c0,0.13,0,0.13-0.13,0.13h-0.13
				l-1.01-0.13C141.32,39.8,141.32,39.8,141.32,39.55C141.32,39.55,141.32,39.67,141.32,39.55 M142.83,37.78l-1.01-0.13l-0.13,1.76
				l1.01,0.13L142.83,37.78z"/>
			<path style="clip-path:url(#SVGID_00000150104960449183488200000000841591638039559833_);fill:#FFFFFF;" d="M145.1,40.18
				l-1.51-0.13l0.13-1.13c0-0.13,0-0.13,0.13-0.13h0.13l1.01,0.13v-0.88l-1.13-0.13h-0.13v-0.13v-0.13h0.13l1.13,0.13
				c0.13,0,0.13,0,0.13,0.13v0.13v0.88c0,0.13,0,0.13-0.13,0.13h-0.13l-1.01-0.13v0.88l1.13,0.13h0.13v0.13
				C145.47,40.18,145.22,40.18,145.1,40.18C145.22,40.18,145.22,40.18,145.1,40.18"/>
			<path style="clip-path:url(#SVGID_00000150104960449183488200000000841591638039559833_);fill:#FFFFFF;" d="M146.1,40.05
				l0.13-2.02c0-0.13,0-0.13,0.13-0.13h0.13l1.01,0.13c0.13,0,0.13,0,0.13,0.13v0.13l-0.13,2.02c0,0.13,0,0.13-0.13,0.13h-0.13
				l-1.01-0.13C146.1,40.3,146.1,40.3,146.1,40.05 M147.61,38.29l-1.01-0.13l-0.13,1.76l1.01,0.13L147.61,38.29z"/>
			<path style="clip-path:url(#SVGID_00000150104960449183488200000000841591638039559833_);fill:#FFFFFF;" d="M151.02,40.56h0.5
				l0.13-1.76h-0.5h-0.13v-0.13v-0.13h0.13h0.88l-0.13,2.14h0.38v-0.63v-0.13h0.13h0.13v0.13v0.63v0.13h-0.13l-1.26-0.13
				L151.02,40.56C151.02,40.68,151.02,40.68,151.02,40.56C150.89,40.56,150.89,40.56,151.02,40.56"/>
			<path style="clip-path:url(#SVGID_00000150104960449183488200000000841591638039559833_);fill:#FFFFFF;" d="M153.28,40.68
				l0.13-2.02c0-0.13,0-0.13,0.13-0.13h0.13l1.01,0.13c0.13,0,0.13,0,0.13,0.13v0.13l-0.13,2.02c0,0.13,0,0.13-0.13,0.13h-0.13
				l-1.01-0.13C153.28,40.93,153.28,40.93,153.28,40.68C153.28,40.93,153.28,40.93,153.28,40.68 M154.8,38.92l-1.01-0.13l-0.13,1.76
				l1.01,0.13L154.8,38.92z"/>
			<path style="clip-path:url(#SVGID_00000150104960449183488200000000841591638039559833_);fill:#FFFFFF;" d="M155.8,40.93h0.5
				l0.13-1.76h-0.5h-0.13v-0.13v-0.13h0.13h0.88l-0.13,2.14h0.38v-0.63V40.3h0.13h0.13v0.13v0.88v0.13h-0.13l-1.26-0.13h-0.13v-0.13
				C155.55,41.06,155.55,41.06,155.8,40.93"/>
			<path style="clip-path:url(#SVGID_00000150104960449183488200000000841591638039559833_);fill:#FFFFFF;" d="M159.33,41.56
				l-1.51-0.13l0.13-1.13c0-0.13,0-0.13,0.13-0.13h0.13l1.01,0.13v-0.88l-1.13-0.13h-0.13v-0.13v-0.13h0.13l1.13,0.13
				c0.13,0,0.13,0,0.13,0.13v0.13v0.88c0,0.13,0,0.13-0.13,0.13h-0.13l-1.01-0.13v0.88l1.13,0.13h0.13v0.13
				C159.58,41.56,159.58,41.56,159.33,41.56C159.58,41.56,159.58,41.56,159.33,41.56"/>
			<path style="clip-path:url(#SVGID_00000150104960449183488200000000841591638039559833_);fill:#FFFFFF;" d="M162.86,41.56
				l0.13-2.02c0-0.13,0-0.13,0.13-0.13h0.13l1.01,0.13c0,0,0.13,0,0.13,0.13v0.13l-0.13,2.02c0,0.13,0,0.13-0.13,0.13h-0.13
				l-1.01-0.13C162.86,41.82,162.86,41.82,162.86,41.56C162.86,41.69,162.86,41.69,162.86,41.56 M164.12,39.93l-1.01-0.13
				l-0.13,1.76l1.01,0.13L164.12,39.93z"/>
			<path style="clip-path:url(#SVGID_00000150104960449183488200000000841591638039559833_);fill:#FFFFFF;" d="M165.13,41.82
				l0.13-2.02c0-0.13,0-0.13,0.13-0.13h0.13l1.01,0.13c0.13,0,0.13,0,0.13,0.13v0.13l-0.13,2.02c0,0.13,0,0.13-0.13,0.13h-0.13
				l-1.01-0.13C165.13,42.07,165.13,42.07,165.13,41.82 M166.64,40.05l-1.01-0.13l-0.13,1.76l1.01,0.13L166.64,40.05z"/>
			<path style="clip-path:url(#SVGID_00000150104960449183488200000000841591638039559833_);fill:#FFFFFF;" d="M167.39,42.07
				l0.13-2.02c0-0.13,0-0.13,0.13-0.13h0.13l1.01,0.13c0,0,0.13,0,0.13,0.13v0.13l-0.13,2.02c0,0.13,0,0.13-0.13,0.13h-0.13
				l-1.01-0.13C167.39,42.32,167.39,42.32,167.39,42.07C167.64,42.19,167.39,42.19,167.39,42.07 M168.9,40.18l-1.01-0.13l-0.13,1.76
				l1.01,0.13L168.9,40.18z"/>
			<path style="clip-path:url(#SVGID_00000150104960449183488200000000841591638039559833_);fill:#FFFFFF;" d="M170.54,42.32h0.63
				v-0.88l-1.01-0.13l0.13-1.51l1.13,0.13h0.13v0.13v0.13h-0.13h-0.88v0.88h0.63c0.13,0,0.13,0,0.13,0.13v0.13v0.88
				c0,0.13,0,0.13-0.13,0.13h-0.13h-0.63h-0.13l-0.13-0.13l-0.13-0.13v-0.13h0.13h0.13L170.54,42.32
				C170.42,42.32,170.42,42.32,170.54,42.32"/>
			<path style="clip-path:url(#SVGID_00000150104960449183488200000000841591638039559833_);fill:#FFFFFF;" d="M176.46,41.06v0.63
				c0,0.13,0,0.13-0.13,0.38c0,0.13,0.13,0.13,0.13,0.38v0.63c0,0.13,0,0.13-0.13,0.13h-0.13l-1.13-0.13h-0.13v-0.13v-0.13h0.13
				l1.13,0.13v-0.63v-0.13h-0.13h-0.63h-0.13v-0.13v-0.13h0.13h0.63h0.13v-0.13v-0.63l-1.13-0.13h-0.13v-0.13v-0.13h0.13l1.13,0.13
				c0.13,0,0.13,0,0.13,0.13C176.46,40.93,176.46,40.93,176.46,41.06"/>
			<path style="clip-path:url(#SVGID_00000150104960449183488200000000841591638039559833_);fill:#FFFFFF;" d="M178.73,41.19v0.63
				c0,0.13,0,0.13-0.13,0.38c0,0.13,0.13,0.13,0.13,0.38v0.63c0,0.13,0,0.13-0.13,0.13h-0.13l-1.26-0.13h-0.13v-0.13v-0.13h0.13
				l1.13,0.13v-0.63v-0.13h-0.13h-0.63h-0.13v-0.13v-0.13h0.13h0.63h0.13v-0.13v-0.63l-1.13-0.13h-0.13v-0.13v-0.13h0.13l1.26-0.25
				c0.13,0,0.13,0,0.13,0.13C178.6,40.93,178.73,41.19,178.73,41.19"/>
			<path style="clip-path:url(#SVGID_00000150104960449183488200000000841591638039559833_);fill:#FFFFFF;" d="M179.61,43.2
				l0.13-2.02c0-0.13,0-0.13,0.13-0.13h0.13l1.01,0.13c0,0,0.13,0,0.13,0.13v0.13L181,43.45c0,0.13,0,0.13-0.13,0.13h-0.13
				l-1.01-0.13C179.61,43.45,179.61,43.45,179.61,43.2C179.61,43.2,179.61,43.33,179.61,43.2 M181,41.31l-1.01-0.13l-0.13,1.76
				l1.01,0.13L181,41.31z"/>
			<path style="clip-path:url(#SVGID_00000150104960449183488200000000841591638039559833_);fill:#FFFFFF;" d="M181.88,43.45
				l0.13-2.02c0-0.13,0-0.13,0.13-0.13h0.13l1.01,0.13c0,0,0.13,0,0.13,0.13v0.13l-0.13,2.02c0,0.13,0,0.13-0.13,0.13h-0.13
				L182,43.7C181.88,43.7,181.88,43.7,181.88,43.45 M183.39,41.69l-1.01-0.13l-0.13,1.76l1.01,0.13L183.39,41.69z"/>
			<path style="clip-path:url(#SVGID_00000150104960449183488200000000841591638039559833_);fill:#FFFFFF;" d="M164.37,31.86
				c-0.13,0-0.13-0.13-0.38-0.13c-0.38,0-0.63,0.13-0.63,0.63c0,0.63,0.13,0.88,0.5,0.88h0.38v0.13h-0.5c-0.5,0-0.63-0.38-0.63-1.01
				s0.38-0.88,0.88-0.88C164.12,31.49,164.37,31.49,164.37,31.86"/>
			<path style="clip-path:url(#SVGID_00000150104960449183488200000000841591638039559833_);fill:#FFFFFF;" d="M165.25,32.62
				l0.5,0.88h-0.13L165.25,32.62h-0.5v0.88h-0.13l0.13-1.76h0.63c0.38,0,0.5,0.13,0.5,0.5C165.75,32.49,165.63,32.62,165.25,32.62
				 M165.25,31.86h-0.5v0.63h0.38c0.38,0,0.38,0,0.5-0.38C165.63,31.99,165.63,31.86,165.25,31.86"/>
			<polygon style="clip-path:url(#SVGID_00000150104960449183488200000000841591638039559833_);fill:#FFFFFF;" points="167.27,33.5 
				167.27,33.5 166.13,33.5 166.26,31.74 167.27,31.86 167.27,31.99 166.26,31.86 166.26,32.49 167.14,32.49 167.14,32.62 
				166.26,32.62 166.26,33.25 			"/>
			<path style="clip-path:url(#SVGID_00000150104960449183488200000000841591638039559833_);fill:#FFFFFF;" d="M168.27,33.88h-0.63
				l0.13-1.76h0.63c0.5,0,0.63,0.38,0.63,1.01C168.9,33.63,168.78,33.88,168.27,33.88 M168.27,32.12h-0.5l-0.13,1.51h0.5
				c0.38,0,0.63-0.13,0.63-0.63C168.9,32.37,168.78,32.12,168.27,32.12"/>
			<polygon style="clip-path:url(#SVGID_00000150104960449183488200000000841591638039559833_);fill:#FFFFFF;" points="
				169.53,31.99 169.53,31.99 169.53,33.75 169.41,33.75 			"/>
			<path style="clip-path:url(#SVGID_00000150104960449183488200000000841591638039559833_);fill:#FFFFFF;" d="M170.42,34.01
				c-0.13,0-0.38-0.13-0.5-0.13v-0.13C170.16,33.88,170.16,33.88,170.42,34.01c0.38-0.13,0.5-0.13,0.5-0.5
				c0-0.5-0.88-0.38-0.88-1.01c0-0.38,0.13-0.5,0.63-0.5c0.13,0,0.38,0,0.5,0.13v0.13c-0.13,0-0.38-0.13-0.5-0.13
				c-0.38,0-0.5,0.13-0.5,0.38c0,0.5,0.88,0.38,0.88,1.01C171.05,33.88,170.92,34.01,170.42,34.01"/>
			<polygon style="clip-path:url(#SVGID_00000150104960449183488200000000841591638039559833_);fill:#FFFFFF;" points="
				171.55,32.37 171.55,32.37 171.55,34.13 171.42,34.13 			"/>
			<polygon style="clip-path:url(#SVGID_00000150104960449183488200000000841591638039559833_);fill:#FFFFFF;" points="
				172.56,32.37 173.06,33.88 173.06,34.01 173.19,33.88 173.82,32.62 173.94,32.62 173.82,34.38 173.69,34.38 173.82,33.12 
				173.82,33 173.69,33.12 173.06,34.38 172.93,34.38 172.43,32.87 172.43,32.75 172.43,32.87 172.31,34.13 172.18,34.13 
				172.31,32.37 			"/>
			<path style="clip-path:url(#SVGID_00000150104960449183488200000000841591638039559833_);fill:#FFFFFF;" d="M175.33,34.01h-0.88
				l-0.13,0.5h-0.13l0.88-1.64h0.13l0.5,1.76h-0.13L175.33,34.01z M174.95,32.87l-0.38,0.88h0.88L174.95,32.87l0.13-0.13
				L174.95,32.87z"/>
			<polygon style="clip-path:url(#SVGID_00000150104960449183488200000000841591638039559833_);fill:#FFFFFF;" points="
				177.09,34.64 176.21,33.12 176.08,33 176.08,33.12 175.96,34.38 175.83,34.38 175.96,32.62 176.08,32.62 176.97,34.13 
				177.09,34.26 177.09,34.13 177.22,32.87 177.34,32.87 			"/>
			<path style="clip-path:url(#SVGID_00000150104960449183488200000000841591638039559833_);fill:#FFFFFF;" d="M179.11,34.13h-0.5
				v0.63h-0.13L178.6,33h0.5c0.38,0,0.5,0.13,0.5,0.63C179.74,34.01,179.61,34.13,179.11,34.13 M179.23,33.12h-0.5v0.88h0.5
				c0.38,0,0.5,0,0.5-0.38C179.61,33.38,179.61,33.12,179.23,33.12"/>
			<polygon style="clip-path:url(#SVGID_00000150104960449183488200000000841591638039559833_);fill:#FFFFFF;" points="181,34.76 
				181,34.76 179.99,34.76 180.12,33 180.24,33 180.12,34.63 			"/>
			<path style="clip-path:url(#SVGID_00000150104960449183488200000000841591638039559833_);fill:#FFFFFF;" d="M182.63,34.51
				c0,0.5-0.38,0.63-0.63,0.63c-0.5,0-0.63-0.38-0.63-0.88l0.13-1.13h0.13l-0.13,1.13c0,0.38,0.13,0.5,0.5,0.5
				C182.38,35.01,182.51,34.76,182.63,34.51v-1.13h0.13L182.63,34.51z"/>
			<path style="clip-path:url(#SVGID_00000150104960449183488200000000841591638039559833_);fill:#FFFFFF;" d="M183.52,35.27
				c-0.13,0-0.38-0.13-0.5-0.13v-0.13C183.14,35.01,183.39,35.14,183.52,35.27c0.38-0.13,0.5-0.13,0.5-0.5
				c0-0.5-0.88-0.38-0.88-1.01c0-0.38,0.13-0.5,0.63-0.5c0.13,0,0.38,0,0.5,0.13v0.13c-0.13,0-0.38-0.13-0.5-0.13
				c-0.38,0-0.5,0.13-0.5,0.38c0,0.5,0.88,0.38,0.88,1.01C184.15,35.14,183.89,35.27,183.52,35.27"/>
			<polygon style="clip-path:url(#SVGID_00000150104960449183488200000000841591638039559833_);fill:#FFFFFF;" points="
				151.14,43.96 151.14,43.96 150.64,43.96 150.64,43.2 151.14,43.2 150.64,43.2 150.64,43.58 151.02,43.58 150.64,43.58 
				150.64,43.96 			"/>
			<polygon style="clip-path:url(#SVGID_00000150104960449183488200000000841591638039559833_);fill:#FFFFFF;" points="
				151.65,43.71 151.77,44.21 151.65,44.21 151.65,43.71 151.27,44.08 151.14,44.08 151.65,43.71 151.27,43.2 151.39,43.2 
				151.65,43.71 151.77,43.33 151.9,43.33 			"/>
			<path style="clip-path:url(#SVGID_00000150104960449183488200000000841591638039559833_);fill:#FFFFFF;" d="M152.28,43.83h-0.13
				v0.38v-0.88h0.38c0.13,0,0.38,0.13,0.38,0.38C152.65,43.71,152.53,43.83,152.28,43.83 M152.53,43.33h-0.13v0.38h0.13
				c0.13,0,0.13,0,0.13-0.13C152.65,43.33,152.53,43.33,152.53,43.33"/>
			<polygon style="clip-path:url(#SVGID_00000150104960449183488200000000841591638039559833_);fill:#FFFFFF;" points="
				152.78,43.33 152.78,43.33 152.78,44.21 			"/>
			<path style="clip-path:url(#SVGID_00000150104960449183488200000000841591638039559833_);fill:#FFFFFF;" d="M153.54,43.83
				l0.13,0.5h-0.13V43.83h-0.38v0.38v-0.88h0.38c0.13,0,0.13,0.13,0.13,0.38C153.66,43.83,153.66,43.83,153.54,43.83 M153.54,43.45
				h-0.25v0.38h0.13c0.13,0,0.13,0,0.13-0.13C153.66,43.45,153.66,43.45,153.54,43.45"/>
			<path style="clip-path:url(#SVGID_00000150104960449183488200000000841591638039559833_);fill:#FFFFFF;" d="M154.29,44.21h-0.38
				l-0.13,0.13l0.38-0.88h0.13l0.13,0.88L154.29,44.21z M154.17,43.71l-0.13,0.38h0.38L154.17,43.71z"/>
			<path style="clip-path:url(#SVGID_00000150104960449183488200000000841591638039559833_);fill:#FFFFFF;" d="M155.43,45.09
				L155.43,45.09h0.63v0.38l-1.01-0.13v-0.13l0.13-0.13c0.38-0.38,0.63-0.88,0.63-1.13c0-0.13,0-0.38-0.13-0.38
				c-0.13,0-0.13,0-0.38,0.13v-0.38c0.13-0.13,0.38-0.13,0.5-0.13c0.38,0,0.5,0.13,0.5,0.5C156.06,44.34,155.8,44.71,155.43,45.09"
				/>
			<path style="clip-path:url(#SVGID_00000150104960449183488200000000841591638039559833_);fill:#FFFFFF;" d="M156.81,45.47
				c-0.38,0-0.5-0.38-0.38-1.13c0-0.88,0.13-1.01,0.63-1.01c0.38,0,0.5,0.38,0.38,1.13C157.19,45.34,157.06,45.59,156.81,45.47
				 M156.94,43.71c-0.13,0-0.13,0-0.38,0.63c0,0.63,0,0.88,0.13,0.88s0.13,0,0.38-0.88C157.06,43.83,157.06,43.71,156.94,43.71"/>
			<path style="clip-path:url(#SVGID_00000150104960449183488200000000841591638039559833_);fill:#FFFFFF;" d="M157.69,45.34
				L157.69,45.34h0.63v0.38l-1.01-0.13v-0.13h0.13c0.38-0.38,0.63-0.88,0.63-1.13c0-0.13,0-0.38-0.13-0.38c-0.13,0-0.13,0-0.38,0.13
				v-0.38c0.13-0.13,0.38-0.13,0.5-0.13c0.38,0,0.5,0.13,0.5,0.5S158.2,44.84,157.69,45.34"/>
			<path style="clip-path:url(#SVGID_00000150104960449183488200000000841591638039559833_);fill:#FFFFFF;" d="M159.08,45.85
				c-0.38,0-0.5-0.38-0.38-1.13c0-0.88,0.13-1.01,0.63-1.01c0.38,0,0.5,0.38,0.38,1.13C159.58,45.47,159.33,45.85,159.08,45.85
				 M159.2,43.96c-0.13,0-0.13,0-0.38,0.63c0,0.63,0,0.88,0.13,0.88c0.13,0,0.13,0,0.38-0.88C159.58,43.96,159.33,43.96,159.2,43.96
				"/>
			<path style="clip-path:url(#SVGID_00000150104960449183488200000000841591638039559833_);fill:#FFFFFF;" d="M139.05,48.62h-0.5
				l-0.13,0.5h-0.38l0.63-2.14h0.38l0.13,2.27h-0.38L139.05,48.62z M138.92,47.23l-0.38,1.01h0.38V47.23z"/>
			<polygon style="clip-path:url(#SVGID_00000150104960449183488200000000841591638039559833_);fill:#FFFFFF;" points="
				140.56,48.87 140.56,49.25 139.68,49.12 139.8,46.85 140.18,46.85 140.06,48.87 			"/>
			<path style="clip-path:url(#SVGID_00000150104960449183488200000000841591638039559833_);fill:#FFFFFF;" d="M141.44,48.74h-0.5
				l-0.13,0.5h-0.38l0.63-2.14h0.38l0.13,2.27h-0.38L141.44,48.74z M141.32,47.61l-0.38,1.01h0.38V47.61z"/>
			<polygon style="clip-path:url(#SVGID_00000150104960449183488200000000841591638039559833_);fill:#FFFFFF;" points="
				142.95,49.37 142.45,48.11 142.45,47.99 142.45,48.11 142.32,49.37 141.95,49.37 142.07,47.11 142.45,47.11 142.83,48.62 
				142.83,48.74 142.83,48.62 142.95,47.36 143.33,47.36 143.21,49.63 			"/>
			<path style="clip-path:url(#SVGID_00000150104960449183488200000000841591638039559833_);fill:#FFFFFF;" d="M144.34,49.12h-0.5
				l-0.13,0.5h-0.38l0.63-2.14h0.38l0.38,2.27h-0.38V49.12z M144.09,47.74l-0.38,1.01h0.38V47.74z"/>
			<path style="clip-path:url(#SVGID_00000150104960449183488200000000841591638039559833_);fill:#FFFFFF;" d="M146.36,49.75
				c-0.13,0-0.38,0.13-0.5,0c-0.5,0-0.63-0.38-0.5-1.13c0-0.88,0.38-1.13,0.88-1.13c0.13,0,0.38,0,0.38,0.13v0.38
				c-0.13,0-0.13-0.13-0.38-0.13c-0.38,0-0.5,0.13-0.5,0.88s0,0.88,0.38,0.88h0.13l0.13-0.88h0.38L146.36,49.75z"/>
			<path style="clip-path:url(#SVGID_00000150104960449183488200000000841591638039559833_);fill:#FFFFFF;" d="M147.36,49.37h-0.5
				l-0.13,0.5h-0.38l0.63-2.14h0.38l0.13,2.27h-0.38L147.36,49.37z M147.24,48.11l-0.38,1.01h0.38V48.11z"/>
			<path style="clip-path:url(#SVGID_00000150104960449183488200000000841591638039559833_);fill:#FFFFFF;" d="M148.87,49.12
				l0.38,1.01h-0.38l-0.13-1.01h-0.13l-0.13,1.01h-0.38l0.13-2.27h0.5c0.38,0,0.5,0.13,0.5,0.63
				C149.25,48.74,149,48.87,148.87,49.12 M148.75,48.11h-0.13v0.63h0.13c0.13,0,0.13,0,0.38-0.38
				C148.87,48.11,148.87,48.11,148.75,48.11"/>
			<path style="clip-path:url(#SVGID_00000150104960449183488200000000841591638039559833_);fill:#FFFFFF;" d="M150.39,48.24
				c0,0-0.13,0-0.38-0.13c-0.38,0-0.38,0.13-0.5,0.88c0,0.63,0,0.88,0.38,0.88h0.38v0.38h-0.38c-0.5,0-0.63-0.38-0.5-1.13
				C149.38,48.24,149.76,47.99,150.39,48.24c0-0.13,0-0.13,0.25,0H150.39z"/>
			<path style="clip-path:url(#SVGID_00000150104960449183488200000000841591638039559833_);fill:#FFFFFF;" d="M150.64,47.99h0.38
				l-0.13,2.27h-0.38L150.64,47.99z M151.14,47.61l-0.38,0.38h-0.13l0.13-0.38H151.14z"/>
			<path style="clip-path:url(#SVGID_00000150104960449183488200000000841591638039559833_);fill:#FFFFFF;" d="M151.77,49.75h-0.5
				l-0.13,0.5h-0.38l0.63-2.14h0.38l0.13,2.27h-0.38L151.77,49.75z M151.65,48.62l-0.38,1.01h0.38V48.62z"/>
			
				<rect x="169.88" y="27.92" transform="matrix(0.0941 -0.9956 0.9956 0.0941 127.3253 196.3967)" style="clip-path:url(#SVGID_00000150104960449183488200000000841591638039559833_);fill:#FFFFFF;" width="3.4" height="0.63"/>
			<path style="clip-path:url(#SVGID_00000150104960449183488200000000841591638039559833_);fill:#FFFFFF;" d="M176.97,27.45
				c-0.13-0.38-0.5-0.38-0.88-0.5h-0.63c-0.13,0-0.38,0.13-0.5,0.38c-0.13-0.13-0.13-0.38-0.38-0.38c-0.13-0.13-0.38-0.13-0.5-0.13
				h-0.5c-0.13,0-0.13,0-0.38,0.13v-0.13h-0.63l-0.38,3.28h0.63l0.13-2.27c0-0.13,0.13-0.38,0.38-0.5c0.13-0.13,0.38-0.13,0.5-0.13
				c0.13,0,0.38,0.13,0.5,0.13c0.13,0.13,0.13,0.38,0.13,0.5l-0.13,2.27h0.63l0.13-2.27c0-0.13,0.13-0.38,0.13-0.5
				c0.13-0.13,0.38-0.13,0.5-0.13c0.13,0,0.38,0.13,0.5,0.13c0.13,0.13,0.13,0.38,0.13,0.5l-0.13,2.27h0.63l0.13-2.27
				C177.22,27.96,177.09,27.58,176.97,27.45"/>
			<path style="clip-path:url(#SVGID_00000150104960449183488200000000841591638039559833_);fill:#FFFFFF;" d="M180.75,30.23
				L180.75,30.23l0.13-1.76c0-0.38-0.13-0.5-0.38-0.88c-0.13-0.13-0.5-0.38-0.88-0.38s-0.63,0-1.01,0.13
				c-0.38,0.13-0.5,0.38-0.5,0.63v0.38h0.63v-0.13c0-0.13,0.13-0.38,0.38-0.38c0.13-0.13,0.38-0.13,0.5-0.13
				c0.13,0,0.38,0.13,0.5,0.13c0.13,0.13,0.13,0.38,0.13,0.5c0,0.13-0.13,0.13-0.38,0.38h-0.63c-0.38,0-0.63,0-1.01,0.13
				c-0.38,0.13-0.5,0.38-0.5,0.63s0,0.5,0.38,0.88c0.13,0.13,0.5,0.38,0.88,0.38h0.63c0.13,0,0.38-0.13,0.5-0.38
				c0,0.13,0.13,0.13,0.13,0.38c0.13,0.13,0.38,0.13,0.38,0.13H181v-0.5C180.87,30.35,180.75,30.35,180.75,30.23 M180.12,29.6
				c0,0.13-0.13,0.38-0.38,0.5c-0.13,0.13-0.5,0.13-0.63,0.13c-0.13,0-0.38,0-0.5-0.13c-0.13-0.13-0.13-0.13-0.13-0.38
				c0-0.13,0.13-0.38,0.13-0.38c0.13,0,0.38-0.13,0.5-0.13h0.13c0.38,0,0.63,0,0.88-0.13V29.6z"/>
			<path style="clip-path:url(#SVGID_00000150104960449183488200000000841591638039559833_);fill:#FFFFFF;" d="M184.52,28.21
				c-0.13-0.38-0.5-0.5-1.01-0.5h-0.63c-0.13,0-0.38,0.13-0.38,0.13v-0.13h-0.63l-0.38,3.28h0.63l0.13-2.14
				c0-0.13,0.13-0.38,0.38-0.5c0.13-0.13,0.38-0.13,0.63-0.13c0.13,0,0.5,0.13,0.63,0.38c0.13,0.13,0.13,0.38,0.13,0.5l-0.13,2.14
				h0.63l0.13-2.14C184.78,28.71,184.65,28.34,184.52,28.21"/>
			<path style="clip-path:url(#SVGID_00000150104960449183488200000000841591638039559833_);fill:#FFFFFF;" d="M170.16,28.08
				c-0.13-0.13-0.5-0.38-0.88-0.38c-0.38,0-0.5-0.13-0.63-0.13c-0.13-0.13-0.13-0.13-0.13-0.38c0-0.13,0-0.13,0.13-0.38
				c0.13,0,0.38-0.13,0.5,0c0.13,0,0.38,0.13,0.5,0.13c0.13,0.13,0.13,0.13,0.13,0.38l0.63-0.13c0-0.13-0.13-0.38-0.38-0.5
				c-0.13-0.13-0.5-0.38-1.01-0.5c-0.38,0-0.63,0-1.01,0.13c-0.38,0.13-0.38,0.38-0.5,0.63c0,0.38,0,0.5,0.38,0.88
				c0.13,0.13,0.5,0.38,0.88,0.38s0.5,0.13,0.63,0.13c0.13,0.13,0.38,0.38,0.38,0.5c0,0.13-0.13,0.13-0.13,0.38
				c-0.13,0-0.38,0.13-0.63,0c-0.13,0-0.5-0.13-0.5-0.38c-0.13-0.13-0.13-0.38-0.13-0.5l-0.63,0.13c0,0.13,0.13,0.5,0.38,0.63
				c0.13,0.38,0.63,0.38,1.01,0.5c0.38,0,0.88,0,1.01-0.13c0.38-0.13,0.5-0.5,0.5-0.63C170.54,28.59,170.54,28.34,170.16,28.08"/>
			<path style="clip-path:url(#SVGID_00000150104960449183488200000000841591638039559833_);fill:#E6E6E6;" d="M167.14,28.08
				l-2.02,1.64H165l-1.64-2.02v-0.13l2.02-1.64h0.13L167.14,28.08C167.27,27.96,167.27,27.96,167.14,28.08"/>
			<path style="clip-path:url(#SVGID_00000150104960449183488200000000841591638039559833_);fill:#FFFFFF;" d="M166.89,27.58
				c-1.13,0-2.52,0.38-3.28,0.5l-0.38-0.38v-0.13l2.02-1.64h0.13L166.89,27.58z"/>
		</g>
	</g>
</g>
</svg>
