<?xml version="1.0" encoding="utf-8"?>
<!-- Generator: Adobe Illustrator 26.3.1, SVG Export Plug-In . SVG Version: 6.00 Build 0)  -->
<svg version="1.1" id="Capa_1" xmlns="http://www.w3.org/2000/svg" xmlns:xlink="http://www.w3.org/1999/xlink" x="0px" y="0px"
	 viewBox="0 0 302 60" style="enable-background:new 0 0 302 60;" xml:space="preserve">
<style type="text/css">
	.st0{fill:#1434CB;}
	.st1{fill:#001A70;}
</style>
<g>
	<g>
		<path class="st0" d="M244.07,5.14l-6.45,16.31L235,7.59c-0.31-1.55-1.51-2.44-2.86-2.44h-10.55l-0.15,0.7
			c2.17,0.47,4.63,1.23,6.12,2.04c0.91,0.5,1.17,0.93,1.47,2.11l4.94,19.13h6.56l10.05-23.97H244.07z"/>
		<polygon class="st0" points="253.24,5.14 248.11,29.11 254.31,29.11 259.44,5.14 		"/>
		<path class="st0" d="M293.18,5.14h-5.29c-1.19,0-2.19,0.69-2.64,1.76l-9.3,22.21h6.51l1.29-3.58h7.96l0.75,3.58h5.73L293.18,5.14z
			 M285.53,20.62l3.26-9l1.88,9H285.53z"/>
		<path class="st0" d="M267.58,11.78c0.02-0.86,0.84-1.77,2.63-2.01c0.89-0.12,3.34-0.21,6.11,1.07l1.09-5.08
			c-1.49-0.54-3.41-1.06-5.8-1.06c-6.13,0-10.44,3.26-10.48,7.92c-0.04,3.45,3.08,5.38,5.43,6.52c2.42,1.17,3.23,1.93,3.22,2.98
			c-0.02,1.61-1.93,2.32-3.71,2.35c-3.12,0.05-4.93-0.84-6.37-1.51l-1.12,5.25c1.45,0.66,4.12,1.24,6.9,1.27
			c6.51,0,10.78-3.22,10.8-8.2C276.29,14.96,267.52,14.61,267.58,11.78z"/>
	</g>
	<path class="st1" d="M17.1,11.14c-1.21-0.38-2.74-0.7-4.46-0.7c-3.92,0-4.87,1.53-4.87,6.56c0,5.32,1.05,6.85,4.97,6.85
		c1.62,0,3.15-0.32,4.43-0.86l0.67,5.22c-1.66,0.76-3.98,1.27-6.05,1.27c-7.35,0-11.02-4.04-11.02-12.51
		c0-7.83,3.53-12.26,11.46-12.26c1.88,0,4.11,0.41,5.54,0.96L17.1,11.14z"/>
	<path class="st1" d="M35.77,19.42l5.19,9.62h-7.77l-3.5-8.31h-2.42v8.31h-6.66V5.15h9.11c6.4,0,9.65,2.39,9.65,7.74
		C39.37,16.08,38.06,18.5,35.77,19.42z M29.79,10.47h-2.52v5.48h2.45c1.97,0,2.71-0.48,2.71-2.8
		C32.43,11.05,31.76,10.47,29.79,10.47z"/>
	<path class="st1" d="M59.59,23.46l-0.13,5.57H42.61V5.15h16.43l0.1,5.64h-9.87v3.5h8.15v5.09h-8.15v4.08H59.59z"/>
	<path class="st1" d="M71.68,29.04h-9.46V5.15h9.36c7.8,0,11.02,3.66,11.02,11.81C82.6,25.63,78.85,29.04,71.68,29.04z M71.56,10.89
		h-2.67v12.48h2.67c3.06,0,4.04-0.89,4.04-6.43C75.6,11.91,74.65,10.89,71.56,10.89z"/>
	<path class="st1" d="M85.72,5.15h6.81v23.88h-6.81V5.15z"/>
	<path class="st1" d="M103.24,29.48c-2.77,0-5.45-0.64-7.61-1.75l0.83-5.51c2.17,1.08,4.39,1.72,6.72,1.72
		c2.13,0,2.96-0.64,2.96-1.82c0-2.93-10.48-1.69-10.48-9.74c0-4.2,2.71-7.64,9.11-7.64c2.39,0,5,0.45,6.94,1.21l-0.76,5.38
		c-2.07-0.61-4.11-0.92-5.8-0.92c-2.58,0-3.09,0.7-3.09,1.62c0,2.96,10.44,1.62,10.44,9.68C112.5,26.49,109,29.48,103.24,29.48z"/>
	<path class="st1" d="M115.24,5.15h6.81v23.88h-6.81V5.15z"/>
	<path class="st1" d="M133.2,5.15l4.74,12.19l0.89,2.42h0.1l0.86-2.39l4.81-12.23h7.26v23.88h-6.08V18.97l0.06-2.58l-0.1-0.03
		l-0.89,2.45l-3.92,10.22h-4.36l-3.92-10.28l-0.86-2.45l-0.06,0.03l0.03,2.58v10.13h-5.86V5.15H133.2z"/>
	<path class="st1" d="M169.05,24.93h-7.39l-1.05,4.11h-7.04l7.93-23.88h7.96l8.06,23.88h-7.42L169.05,24.93z M164.75,12.92
		l-1.72,6.69h4.68l-1.69-6.66l-0.57-2.55h-0.1L164.75,12.92z"/>
	<path class="st1" d="M194.61,29.04l-7.96-11.02l-1.46-2.13l-0.06,0.03l0.03,2.58v10.54h-5.92V5.15h5.54l8.6,12.39l0.06-0.03
		l-0.06-2.55V5.15h5.89v23.88H194.61z"/>
	<path class="st1" d="M210.37,30.19c-0.58,0-1.05-0.47-1.05-1.05V5.05c0-0.58,0.47-1.05,1.05-1.05s1.05,0.47,1.05,1.05v24.09
		C211.42,29.72,210.95,30.19,210.37,30.19z"/>
	<g>
		<path class="st1" d="M31.07,49.73c-1.17,1.15-2.68,1.69-4.31,1.69c-4.22,0-6-2.9-6.02-5.85c-0.02-2.97,1.91-5.98,6.02-5.98
			c1.54,0,3,0.58,4.17,1.74l-1.43,1.38c-0.75-0.73-1.75-1.07-2.74-1.07c-2.74,0-3.92,2.04-3.91,3.94c0.02,1.88,1.1,3.84,3.91,3.84
			c0.99,0,2.11-0.4,2.85-1.15L31.07,49.73z"/>
		<path class="st1" d="M40.34,47.2c0,2.3-1.57,4.17-4.17,4.17c-2.59,0-4.15-1.86-4.15-4.17c0-2.29,1.59-4.17,4.13-4.17
			C38.71,43.04,40.34,44.92,40.34,47.2z M34,47.2c0,1.22,0.73,2.35,2.17,2.35c1.44,0,2.17-1.14,2.17-2.35c0-1.2-0.84-2.37-2.17-2.37
			C34.75,44.84,34,46,34,47.2z"/>
		<path class="st1" d="M47.31,51.19v-4.28c0-1.05-0.55-2.01-1.64-2.01c-1.07,0-1.7,0.96-1.7,2.01v4.28h-1.98v-8.01h1.83l0.15,0.97
			c0.42-0.81,1.35-1.1,2.11-1.1c0.96,0,1.91,0.39,2.37,1.49c0.71-1.14,1.64-1.46,2.67-1.46c2.27,0,3.39,1.39,3.39,3.79v4.31h-1.98
			v-4.31c0-1.05-0.44-1.95-1.51-1.95c-1.07,0-1.74,0.92-1.74,1.98v4.28H47.31z"/>
		<path class="st1" d="M56.53,54.86V43.2h1.85l0.13,1.1c0.61-0.89,1.69-1.28,2.59-1.28c2.46,0,4.1,1.83,4.1,4.18
			c0,2.34-1.48,4.18-4.04,4.18c-0.84,0-2.09-0.26-2.66-1.14v4.6H56.53z M63.23,47.2c0-1.25-0.84-2.27-2.27-2.27
			c-1.43,0-2.27,1.02-2.27,2.27c0,1.25,0.93,2.27,2.27,2.27C62.3,49.47,63.23,48.45,63.23,47.2z"/>
		<path class="st1" d="M68.68,43.2l0.15,0.92c0.61-0.99,1.44-1.14,2.25-1.14c0.83,0,1.62,0.32,2.06,0.76l-0.89,1.72
			c-0.41-0.34-0.78-0.52-1.43-0.52c-1.04,0-1.99,0.55-1.99,2.03v4.22h-1.98V43.2H68.68z"/>
		<path class="st1" d="M80.29,43.2h1.9v7.99h-1.87l-0.1-1.17c-0.45,0.94-1.7,1.39-2.59,1.41c-2.37,0.02-4.12-1.44-4.12-4.25
			c0-2.76,1.83-4.2,4.17-4.18c1.07,0,2.09,0.5,2.55,1.3L80.29,43.2z M75.49,47.19c0,1.52,1.05,2.43,2.37,2.43
			c3.11,0,3.11-4.85,0-4.85C76.55,44.77,75.49,45.66,75.49,47.19z"/>
		<path class="st1" d="M96.45,39.86v11.33H94.6l-0.13-1.1c-0.62,0.96-1.6,1.28-2.58,1.28c-2.35,0-4.12-1.56-4.12-4.18
			c0-2.76,1.74-4.18,4.07-4.18c0.84,0,2.16,0.45,2.63,1.28v-4.43H96.45z M89.75,47.19c0,1.39,1.01,2.35,2.27,2.35
			c1.25,0,2.32-0.91,2.32-2.35c0-1.39-1.07-2.34-2.32-2.34C90.76,44.85,89.75,45.74,89.75,47.19z"/>
		<path class="st1" d="M100.16,47.9c0.13,0.99,0.99,1.7,2.38,1.7c0.73,0,1.69-0.28,2.14-0.75l1.26,1.25
			c-0.84,0.88-2.22,1.3-3.44,1.3c-2.76,0-4.39-1.7-4.39-4.26c0-2.43,1.65-4.18,4.25-4.18c2.68,0,4.34,1.65,4.04,4.95H100.16z
			 M104.5,46.26c-0.13-1.04-0.94-1.56-2.08-1.56c-1.07,0-1.95,0.52-2.24,1.56H104.5z"/>
		<path class="st1" d="M114.47,40.95v2.27h2.21v1.7h-2.22v3.45c0,0.76,0.42,1.14,1.04,1.14c0.31,0,0.66-0.1,0.96-0.24l0.55,1.69
			c-0.57,0.23-1.04,0.32-1.64,0.34c-1.74,0.06-2.87-0.92-2.87-2.92v-3.45H111v-1.7h1.49v-2.06L114.47,40.95z"/>
		<path class="st1" d="M126.15,47.2c0,2.3-1.57,4.17-4.17,4.17c-2.59,0-4.15-1.86-4.15-4.17c0-2.29,1.59-4.17,4.13-4.17
			S126.15,44.92,126.15,47.2z M119.82,47.2c0,1.22,0.73,2.35,2.17,2.35c1.44,0,2.17-1.14,2.17-2.35c0-1.2-0.84-2.37-2.17-2.37
			C120.56,44.84,119.82,46,119.82,47.2z"/>
		<path class="st1" d="M136.01,39.86v11.33h-1.85l-0.13-1.1c-0.62,0.96-1.6,1.28-2.58,1.28c-2.35,0-4.12-1.56-4.12-4.18
			c0-2.76,1.74-4.18,4.07-4.18c0.84,0,2.16,0.45,2.63,1.28v-4.43H136.01z M129.31,47.19c0,1.39,1.01,2.35,2.27,2.35
			c1.25,0,2.32-0.91,2.32-2.35c0-1.39-1.07-2.34-2.32-2.34C130.32,44.85,129.31,45.74,129.31,47.19z"/>
		<path class="st1" d="M145.97,47.2c0,2.3-1.57,4.17-4.17,4.17c-2.59,0-4.15-1.86-4.15-4.17c0-2.29,1.59-4.17,4.13-4.17
			C144.34,43.04,145.97,44.92,145.97,47.2z M139.63,47.2c0,1.22,0.73,2.35,2.17,2.35c1.44,0,2.17-1.14,2.17-2.35
			c0-1.2-0.84-2.37-2.17-2.37C140.38,44.84,139.63,46,139.63,47.2z"/>
		<path class="st1" d="M149.02,52.78h-1.12l0.31-1.6c-0.45-0.08-0.76-0.37-0.76-0.88c0-1.49,2.3-1.43,2.3,0.05
			C149.75,50.54,149.76,50.5,149.02,52.78z"/>
		<path class="st1" d="M157.2,47.9c0.13,0.99,0.99,1.7,2.38,1.7c0.73,0,1.69-0.28,2.14-0.75l1.26,1.25c-0.84,0.88-2.22,1.3-3.44,1.3
			c-2.76,0-4.39-1.7-4.39-4.26c0-2.43,1.65-4.18,4.25-4.18c2.68,0,4.34,1.65,4.04,4.95H157.2z M161.55,46.26
			c-0.13-1.04-0.94-1.56-2.08-1.56c-1.07,0-1.95,0.52-2.24,1.56H161.55z"/>
		<path class="st1" d="M170.98,51.19v-4.18c0-1.22-0.66-2.14-1.93-2.14c-1.22,0-2.04,1.02-2.04,2.24v4.09h-1.96v-8.01h1.77
			l0.13,1.09c0.81-0.79,1.62-1.2,2.63-1.2c1.88,0,3.39,1.41,3.39,3.92v4.2H170.98z"/>
		<path class="st1" d="M181.45,40.95v2.27h2.2v1.7h-2.22v3.45c0,0.76,0.42,1.14,1.04,1.14c0.31,0,0.66-0.1,0.96-0.24l0.55,1.69
			c-0.57,0.23-1.04,0.32-1.64,0.34c-1.74,0.06-2.87-0.92-2.87-2.92v-3.45h-1.49v-1.7h1.49v-2.06L181.45,40.95z"/>
		<path class="st1" d="M193.13,47.2c0,2.3-1.57,4.17-4.17,4.17c-2.59,0-4.15-1.86-4.15-4.17c0-2.29,1.59-4.17,4.13-4.17
			S193.13,44.92,193.13,47.2z M186.79,47.2c0,1.22,0.73,2.35,2.17,2.35s2.17-1.14,2.17-2.35c0-1.2-0.84-2.37-2.17-2.37
			C187.54,44.84,186.79,46,186.79,47.2z"/>
		<path class="st1" d="M202.99,39.86v11.33h-1.85l-0.13-1.1c-0.62,0.96-1.61,1.28-2.58,1.28c-2.35,0-4.12-1.56-4.12-4.18
			c0-2.76,1.74-4.18,4.07-4.18c0.84,0,2.16,0.45,2.63,1.28v-4.43H202.99z M196.29,47.19c0,1.39,1,2.35,2.27,2.35
			c1.25,0,2.32-0.91,2.32-2.35c0-1.39-1.07-2.34-2.32-2.34C197.3,44.85,196.29,45.74,196.29,47.19z"/>
		<path class="st1" d="M211.43,43.2h1.9v7.99h-1.87l-0.1-1.17c-0.45,0.94-1.7,1.39-2.59,1.41c-2.37,0.02-4.12-1.44-4.12-4.25
			c0-2.76,1.83-4.2,4.17-4.18c1.07,0,2.09,0.5,2.55,1.3L211.43,43.2z M206.63,47.19c0,1.52,1.05,2.43,2.37,2.43
			c3.11,0,3.11-4.85,0-4.85C207.68,44.77,206.63,45.66,206.63,47.19z"/>
		<path class="st1" d="M220.49,45.32c-0.57-0.54-1.22-0.71-1.98-0.71c-0.94,0-1.46,0.29-1.46,0.79c0,0.52,0.47,0.81,1.49,0.88
			c1.51,0.1,3.42,0.44,3.42,2.56c0,1.41-1.15,2.63-3.44,2.63c-1.26,0-2.53-0.21-3.7-1.43l0.97-1.41c0.76,0.79,1.86,1.1,2.76,1.12
			c0.75,0.02,1.44-0.29,1.44-0.88c0-0.55-0.45-0.86-1.59-0.92c-1.51-0.11-3.31-0.67-3.31-2.48c0-1.85,1.91-2.5,3.37-2.5
			c1.25,0,2.19,0.24,3.11,1.05L220.49,45.32z"/>
		<path class="st1" d="M227.44,54.86V43.2h1.85l0.13,1.1c0.62-0.89,1.69-1.28,2.59-1.28c2.47,0,4.1,1.83,4.1,4.18
			c0,2.34-1.48,4.18-4.04,4.18c-0.84,0-2.09-0.26-2.66-1.14v4.6H227.44z M234.13,47.2c0-1.25-0.84-2.27-2.27-2.27
			s-2.27,1.02-2.27,2.27c0,1.25,0.92,2.27,2.27,2.27C233.21,49.47,234.13,48.45,234.13,47.2z"/>
		<path class="st1" d="M244.07,43.2h1.9v7.99h-1.87l-0.1-1.17c-0.45,0.94-1.7,1.39-2.59,1.41c-2.37,0.02-4.12-1.44-4.12-4.25
			c0-2.76,1.83-4.2,4.17-4.18c1.07,0,2.09,0.5,2.55,1.3L244.07,43.2z M239.27,47.19c0,1.52,1.05,2.43,2.37,2.43
			c3.11,0,3.11-4.85,0-4.85C240.32,44.77,239.27,45.66,239.27,47.19z"/>
		<path class="st1" d="M249.93,43.2l0.15,0.92c0.61-0.99,1.44-1.14,2.25-1.14c0.83,0,1.62,0.32,2.06,0.76l-0.89,1.72
			c-0.41-0.34-0.78-0.52-1.43-0.52c-1.04,0-1.99,0.55-1.99,2.03v4.22h-1.98V43.2H249.93z"/>
		<path class="st1" d="M258.31,40.95v2.27h2.21v1.7h-2.22v3.45c0,0.76,0.42,1.14,1.04,1.14c0.31,0,0.66-0.1,0.96-0.24l0.55,1.69
			c-0.57,0.23-1.04,0.32-1.64,0.34c-1.74,0.06-2.87-0.92-2.87-2.92v-3.45h-1.49v-1.7h1.49v-2.06L258.31,40.95z"/>
		<path class="st1" d="M263.74,47.9c0.13,0.99,0.99,1.7,2.38,1.7c0.73,0,1.69-0.28,2.14-0.75l1.26,1.25
			c-0.84,0.88-2.22,1.3-3.44,1.3c-2.76,0-4.39-1.7-4.39-4.26c0-2.43,1.65-4.18,4.25-4.18c2.67,0,4.34,1.65,4.04,4.95H263.74z
			 M268.08,46.26c-0.13-1.04-0.94-1.56-2.08-1.56c-1.07,0-1.95,0.52-2.24,1.56H268.08z"/>
		<path class="st1" d="M276.61,45.32c-0.57-0.54-1.22-0.71-1.98-0.71c-0.94,0-1.46,0.29-1.46,0.79c0,0.52,0.47,0.81,1.49,0.88
			c1.51,0.1,3.42,0.44,3.42,2.56c0,1.41-1.15,2.63-3.44,2.63c-1.26,0-2.53-0.21-3.7-1.43l0.97-1.41c0.76,0.79,1.86,1.1,2.76,1.12
			c0.75,0.02,1.44-0.29,1.44-0.88c0-0.55-0.46-0.86-1.59-0.92c-1.51-0.11-3.31-0.67-3.31-2.48c0-1.85,1.91-2.5,3.37-2.5
			c1.25,0,2.19,0.24,3.11,1.05L276.61,45.32z"/>
	</g>
</g>
</svg>
