<svg width="150" height="24" viewBox="0 0 150 24" fill="none" xmlns="http://www.w3.org/2000/svg">
<path d="M12.5 1.5L3.5 4.5V13.5C3.5 18.4711 7.52891 22.5 12.5 22.5C17.4711 22.5 21.5 18.4711 21.5 13.5V4.5L12.5 1.5ZM19.8125 13.5C19.8125 17.5383 16.5383 20.8125 12.5 20.8125C8.46172 20.8125 5.1875 17.5383 5.1875 13.5V5.76562L12.5 3.1875L19.8125 5.76562V13.5Z" fill="#03499A"/>
<path d="M9.36882 11.1352C9.29061 11.0566 9.19766 10.9943 9.0953 10.9517C8.99294 10.9092 8.88318 10.8873 8.77233 10.8873C8.66148 10.8873 8.55173 10.9092 8.44936 10.9517C8.347 10.9943 8.25405 11.0566 8.17585 11.1352C8.09729 11.2134 8.03495 11.3063 7.99241 11.4087C7.94988 11.511 7.92798 11.6208 7.92798 11.7316C7.92798 11.8425 7.94988 11.9522 7.99241 12.0546C8.03495 12.157 8.09729 12.2499 8.17585 12.3281L11.2087 15.3609L11.2579 15.4102C11.3319 15.4843 11.4197 15.5431 11.5164 15.5832C11.6132 15.6233 11.7168 15.6439 11.8215 15.6439C11.9263 15.6439 12.0299 15.6233 12.1267 15.5832C12.2234 15.5431 12.3112 15.4843 12.3852 15.4102L17.6235 10.1719C17.6976 10.0979 17.7564 10.01 17.7965 9.91332C17.8366 9.8166 17.8573 9.71292 17.8573 9.6082C17.8573 9.50349 17.8366 9.39981 17.7965 9.30309C17.7564 9.20637 17.6976 9.1185 17.6235 9.04453L17.5579 8.97891C17.4839 8.9048 17.396 8.846 17.2993 8.80588C17.2026 8.76577 17.0989 8.74512 16.9942 8.74512C16.8895 8.74512 16.7858 8.76577 16.6891 8.80588C16.5924 8.846 16.5045 8.9048 16.4305 8.97891L11.8204 13.5867L9.36882 11.1352Z" fill="#74B54D"/>
<path d="M30.098 19V4.45455H35.2827C36.4143 4.45455 37.3518 4.66051 38.0952 5.07244C38.8385 5.48437 39.3949 6.04782 39.7642 6.76278C40.1335 7.47301 40.3182 8.2732 40.3182 9.16335C40.3182 10.0582 40.1312 10.8632 39.7571 11.5781C39.3878 12.2884 38.8291 12.8518 38.081 13.2685C37.3376 13.6804 36.4025 13.8864 35.2756 13.8864H31.7102V12.0256H35.0767C35.7917 12.0256 36.3717 11.9025 36.8168 11.6562C37.2618 11.4053 37.5885 11.0644 37.7969 10.6335C38.0052 10.2027 38.1094 9.71259 38.1094 9.16335C38.1094 8.61411 38.0052 8.12642 37.7969 7.70028C37.5885 7.27415 37.2595 6.94034 36.8097 6.69886C36.3646 6.45739 35.7775 6.33665 35.0483 6.33665H32.2926V19H30.098ZM45.8276 19.2415C45.1363 19.2415 44.5113 19.1136 43.9526 18.858C43.3939 18.5975 42.9512 18.2211 42.6245 17.7287C42.3025 17.2363 42.1415 16.6326 42.1415 15.9176C42.1415 15.3021 42.2599 14.7955 42.4966 14.3977C42.7334 14 43.053 13.6851 43.4554 13.4531C43.8579 13.2211 44.3077 13.0459 44.8049 12.9276C45.302 12.8092 45.8086 12.7192 46.3247 12.6577C46.9782 12.5819 47.5085 12.5204 47.9157 12.473C48.3229 12.4209 48.6188 12.3381 48.8034 12.2244C48.9881 12.1108 49.0804 11.9261 49.0804 11.6705V11.6207C49.0804 11.0005 48.9052 10.5199 48.5549 10.179C48.2092 9.83807 47.6931 9.66761 47.0066 9.66761C46.2916 9.66761 45.7282 9.82623 45.3162 10.1435C44.909 10.456 44.6273 10.804 44.4711 11.1875L42.4753 10.733C42.7121 10.0701 43.0577 9.53504 43.5122 9.12784C43.9715 8.71591 44.4995 8.41761 45.0961 8.23295C45.6926 8.04356 46.32 7.94886 46.9782 7.94886C47.4138 7.94886 47.8754 8.00095 48.3631 8.10511C48.8555 8.20455 49.3148 8.3892 49.7409 8.65909C50.1718 8.92898 50.5246 9.31487 50.7992 9.81676C51.0738 10.3139 51.2111 10.9602 51.2111 11.7557V19H49.1372V17.5085H49.052C48.9147 17.7831 48.7087 18.053 48.4341 18.3182C48.1595 18.5833 47.8068 18.8035 47.3759 18.9787C46.945 19.1539 46.4289 19.2415 45.8276 19.2415ZM46.2892 17.5369C46.8764 17.5369 47.3782 17.4209 47.7949 17.1889C48.2163 16.9569 48.5359 16.6539 48.7537 16.2798C48.9763 15.901 49.0875 15.4962 49.0875 15.0653V13.6591C49.0118 13.7348 48.865 13.8059 48.6472 13.8722C48.4341 13.9337 48.1903 13.9882 47.9157 14.0355C47.641 14.0781 47.3735 14.1184 47.1131 14.1562C46.8527 14.1894 46.6349 14.2178 46.4597 14.2415C46.0478 14.2936 45.6713 14.3812 45.3304 14.5043C44.9943 14.6274 44.7244 14.8049 44.5208 15.0369C44.3219 15.2642 44.2225 15.5672 44.2225 15.946C44.2225 16.4716 44.4166 16.8693 44.8049 17.1392C45.1931 17.4044 45.6879 17.5369 46.2892 17.5369ZM58.6435 23.3182C57.777 23.3182 57.0312 23.2045 56.4062 22.9773C55.786 22.75 55.2793 22.4493 54.8863 22.0753C54.4934 21.7012 54.1998 21.2917 54.0057 20.8466L55.831 20.0938C55.9588 20.3021 56.1292 20.5223 56.3423 20.7543C56.5601 20.991 56.8537 21.1922 57.223 21.358C57.597 21.5237 58.0776 21.6065 58.6648 21.6065C59.4697 21.6065 60.1349 21.41 60.6605 21.017C61.1861 20.6288 61.4488 20.0085 61.4488 19.1562V17.0114H61.3139C61.1861 17.2434 61.0014 17.5014 60.7599 17.7855C60.5232 18.0696 60.1965 18.3158 59.7798 18.5241C59.3631 18.7325 58.821 18.8366 58.1534 18.8366C57.2917 18.8366 56.5151 18.6354 55.8238 18.233C55.1373 17.8258 54.5928 17.2268 54.1903 16.4361C53.7926 15.6406 53.5937 14.6629 53.5937 13.5028C53.5937 12.3428 53.7902 11.3485 54.1832 10.5199C54.581 9.69129 55.1255 9.05682 55.8167 8.61648C56.508 8.1714 57.2917 7.94886 58.1676 7.94886C58.8447 7.94886 59.3916 8.0625 59.8082 8.28977C60.2249 8.51231 60.5492 8.77273 60.7812 9.07102C61.018 9.36932 61.2003 9.6321 61.3281 9.85938H61.4844V8.09091H63.5653V19.2415C63.5653 20.179 63.3475 20.9484 62.9119 21.5497C62.4763 22.151 61.8868 22.5961 61.1435 22.8849C60.4048 23.1738 59.5715 23.3182 58.6435 23.3182ZM58.6221 17.0753C59.2329 17.0753 59.749 16.9332 60.1704 16.6491C60.5966 16.3603 60.9185 15.9484 61.1363 15.4134C61.3589 14.8736 61.4702 14.2273 61.4702 13.4744C61.4702 12.7405 61.3613 12.0942 61.1435 11.5355C60.9256 10.9768 60.606 10.5412 60.1846 10.2287C59.7632 9.91146 59.2424 9.75284 58.6221 9.75284C57.9829 9.75284 57.4503 9.91856 57.0241 10.25C56.598 10.5767 56.276 11.0218 56.0582 11.5852C55.8452 12.1487 55.7386 12.7784 55.7386 13.4744C55.7386 14.1894 55.8475 14.8168 56.0653 15.3565C56.2831 15.8963 56.6051 16.3177 57.0312 16.6207C57.4621 16.9238 57.9924 17.0753 58.6221 17.0753ZM71.0385 19.2202C70.0158 19.2202 69.1233 18.9858 68.361 18.517C67.5986 18.0483 67.0068 17.3925 66.5854 16.5497C66.164 15.7069 65.9533 14.7221 65.9533 13.5952C65.9533 12.4635 66.164 11.474 66.5854 10.6264C67.0068 9.77888 67.5986 9.12074 68.361 8.65199C69.1233 8.18324 70.0158 7.94886 71.0385 7.94886C72.0612 7.94886 72.9538 8.18324 73.7161 8.65199C74.4784 9.12074 75.0702 9.77888 75.4916 10.6264C75.913 11.474 76.1237 12.4635 76.1237 13.5952C76.1237 14.7221 75.913 15.7069 75.4916 16.5497C75.0702 17.3925 74.4784 18.0483 73.7161 18.517C72.9538 18.9858 72.0612 19.2202 71.0385 19.2202ZM71.0456 17.4375C71.7085 17.4375 72.2577 17.2623 72.6933 16.9119C73.1289 16.5616 73.4509 16.0952 73.6592 15.5128C73.8723 14.9304 73.9789 14.2888 73.9789 13.5881C73.9789 12.892 73.8723 12.2528 73.6592 11.6705C73.4509 11.0833 73.1289 10.6122 72.6933 10.2571C72.2577 9.90199 71.7085 9.72443 71.0456 9.72443C70.378 9.72443 69.824 9.90199 69.3837 10.2571C68.9481 10.6122 68.6237 11.0833 68.4107 11.6705C68.2023 12.2528 68.0982 12.892 68.0982 13.5881C68.0982 14.2888 68.2023 14.9304 68.4107 15.5128C68.6237 16.0952 68.9481 16.5616 69.3837 16.9119C69.824 17.2623 70.378 17.4375 71.0456 17.4375ZM92.0218 10.7543L90.0971 11.0952C90.0166 10.849 89.8888 10.6146 89.7136 10.392C89.5431 10.1695 89.3111 9.98722 89.0175 9.84517C88.724 9.70312 88.357 9.6321 87.9167 9.6321C87.3154 9.6321 86.8135 9.76705 86.411 10.0369C86.0085 10.3021 85.8073 10.6454 85.8073 11.0668C85.8073 11.4313 85.9423 11.7249 86.2121 11.9474C86.482 12.17 86.9176 12.3523 87.519 12.4943L89.2519 12.892C90.2557 13.1241 91.0038 13.4815 91.4962 13.9645C91.9887 14.4474 92.2349 15.0748 92.2349 15.8466C92.2349 16.5 92.0455 17.0824 91.6667 17.5938C91.2926 18.1004 90.7694 18.4981 90.0971 18.7869C89.4295 19.0758 88.6553 19.2202 87.7746 19.2202C86.5531 19.2202 85.5564 18.9598 84.7846 18.4389C84.0128 17.9134 83.5393 17.1676 83.3641 16.2017L85.4167 15.8892C85.5445 16.4242 85.8073 16.8291 86.205 17.1037C86.6028 17.3736 87.1212 17.5085 87.7604 17.5085C88.4565 17.5085 89.0128 17.3641 89.4295 17.0753C89.8461 16.7817 90.0545 16.4242 90.0545 16.0028C90.0545 15.6619 89.9266 15.3755 89.671 15.1435C89.42 14.9115 89.0341 14.7363 88.5133 14.6179L86.6667 14.2131C85.6487 13.9811 84.8959 13.6117 84.4082 13.1051C83.9252 12.5985 83.6837 11.9569 83.6837 11.1804C83.6837 10.5365 83.8637 9.97301 84.2235 9.49006C84.5834 9.0071 85.0805 8.63068 85.715 8.3608C86.3495 8.08617 87.0763 7.94886 87.8954 7.94886C89.0744 7.94886 90.0024 8.20455 90.6795 8.71591C91.3566 9.22254 91.804 9.90199 92.0218 10.7543ZM99.3014 19.2202C98.2266 19.2202 97.301 18.9905 96.5245 18.5312C95.7527 18.0672 95.1561 17.4162 94.7347 16.5781C94.318 15.7353 94.1097 14.7481 94.1097 13.6165C94.1097 12.4991 94.318 11.5142 94.7347 10.6619C95.1561 9.80966 95.7432 9.14441 96.4961 8.66619C97.2536 8.18797 98.139 7.94886 99.1523 7.94886C99.7678 7.94886 100.364 8.05066 100.942 8.25426C101.52 8.45786 102.038 8.77746 102.497 9.21307C102.957 9.64867 103.319 10.2145 103.584 10.9105C103.849 11.6018 103.982 12.4422 103.982 13.4318V14.1847H95.31V12.5938H101.901C101.901 12.035 101.787 11.5402 101.56 11.1094C101.333 10.6738 101.013 10.3305 100.601 10.0795C100.194 9.8286 99.7157 9.70312 99.1665 9.70312C98.5699 9.70312 98.0491 9.84991 97.604 10.1435C97.1637 10.4323 96.8228 10.8111 96.5813 11.2798C96.3445 11.7438 96.2262 12.2481 96.2262 12.7926V14.0355C96.2262 14.7647 96.354 15.3849 96.6097 15.8963C96.8701 16.4077 97.2323 16.7983 97.6963 17.0682C98.1604 17.3333 98.7025 17.4659 99.3228 17.4659C99.7252 17.4659 100.092 17.4091 100.424 17.2955C100.755 17.1771 101.042 17.0019 101.283 16.7699C101.524 16.5379 101.709 16.2514 101.837 15.9105L103.847 16.2727C103.686 16.8646 103.397 17.383 102.98 17.8281C102.568 18.2685 102.05 18.6117 101.425 18.858C100.805 19.0994 100.097 19.2202 99.3014 19.2202ZM110.942 23.3182C110.075 23.3182 109.33 23.2045 108.705 22.9773C108.084 22.75 107.578 22.4493 107.185 22.0753C106.792 21.7012 106.498 21.2917 106.304 20.8466L108.129 20.0938C108.257 20.3021 108.428 20.5223 108.641 20.7543C108.859 20.991 109.152 21.1922 109.521 21.358C109.895 21.5237 110.376 21.6065 110.963 21.6065C111.768 21.6065 112.433 21.41 112.959 21.017C113.485 20.6288 113.747 20.0085 113.747 19.1562V17.0114H113.612C113.485 17.2434 113.3 17.5014 113.058 17.7855C112.822 18.0696 112.495 18.3158 112.078 18.5241C111.662 18.7325 111.119 18.8366 110.452 18.8366C109.59 18.8366 108.814 18.6354 108.122 18.233C107.436 17.8258 106.891 17.2268 106.489 16.4361C106.091 15.6406 105.892 14.6629 105.892 13.5028C105.892 12.3428 106.089 11.3485 106.482 10.5199C106.879 9.69129 107.424 9.05682 108.115 8.61648C108.806 8.1714 109.59 7.94886 110.466 7.94886C111.143 7.94886 111.69 8.0625 112.107 8.28977C112.523 8.51231 112.848 8.77273 113.08 9.07102C113.316 9.36932 113.499 9.6321 113.627 9.85938H113.783V8.09091H115.864V19.2415C115.864 20.179 115.646 20.9484 115.21 21.5497C114.775 22.151 114.185 22.5961 113.442 22.8849C112.703 23.1738 111.87 23.3182 110.942 23.3182ZM110.921 17.0753C111.531 17.0753 112.047 16.9332 112.469 16.6491C112.895 16.3603 113.217 15.9484 113.435 15.4134C113.657 14.8736 113.769 14.2273 113.769 13.4744C113.769 12.7405 113.66 12.0942 113.442 11.5355C113.224 10.9768 112.904 10.5412 112.483 10.2287C112.062 9.91146 111.541 9.75284 110.921 9.75284C110.281 9.75284 109.749 9.91856 109.323 10.25C108.896 10.5767 108.574 11.0218 108.357 11.5852C108.144 12.1487 108.037 12.7784 108.037 13.4744C108.037 14.1894 108.146 14.8168 108.364 15.3565C108.582 15.8963 108.904 16.3177 109.33 16.6207C109.761 16.9238 110.291 17.0753 110.921 17.0753ZM125.652 14.4759V8.09091H127.783V19H125.695V17.1108H125.581C125.33 17.6932 124.928 18.1785 124.374 18.5668C123.825 18.9503 123.14 19.142 122.321 19.142C121.621 19.142 121 18.9882 120.461 18.6804C119.925 18.3679 119.504 17.9062 119.196 17.2955C118.893 16.6847 118.742 15.9295 118.742 15.0298V8.09091H120.865V14.7741C120.865 15.5175 121.071 16.1094 121.483 16.5497C121.895 16.9901 122.43 17.2102 123.088 17.2102C123.486 17.2102 123.881 17.1108 124.274 16.9119C124.672 16.7131 125.001 16.4124 125.262 16.0099C125.527 15.6075 125.657 15.0961 125.652 14.4759ZM130.666 19V8.09091H132.719V9.82386H132.832C133.031 9.23674 133.382 8.77509 133.884 8.43892C134.39 8.09801 134.963 7.92756 135.602 7.92756C135.735 7.92756 135.891 7.93229 136.071 7.94176C136.256 7.95123 136.4 7.96307 136.504 7.97727V10.0085C136.419 9.98485 136.268 9.95881 136.05 9.9304C135.832 9.89725 135.614 9.88068 135.396 9.88068C134.895 9.88068 134.447 9.98722 134.054 10.2003C133.666 10.4086 133.358 10.6998 133.131 11.0739C132.904 11.4432 132.79 11.8646 132.79 12.3381V19H130.666ZM142.577 19.2202C141.554 19.2202 140.661 18.9858 139.899 18.517C139.137 18.0483 138.545 17.3925 138.124 16.5497C137.702 15.7069 137.491 14.7221 137.491 13.5952C137.491 12.4635 137.702 11.474 138.124 10.6264C138.545 9.77888 139.137 9.12074 139.899 8.65199C140.661 8.18324 141.554 7.94886 142.577 7.94886C143.599 7.94886 144.492 8.18324 145.254 8.65199C146.017 9.12074 146.608 9.77888 147.03 10.6264C147.451 11.474 147.662 12.4635 147.662 13.5952C147.662 14.7221 147.451 15.7069 147.03 16.5497C146.608 17.3925 146.017 18.0483 145.254 18.517C144.492 18.9858 143.599 19.2202 142.577 19.2202ZM142.584 17.4375C143.247 17.4375 143.796 17.2623 144.231 16.9119C144.667 16.5616 144.989 16.0952 145.197 15.5128C145.41 14.9304 145.517 14.2888 145.517 13.5881C145.517 12.892 145.41 12.2528 145.197 11.6705C144.989 11.0833 144.667 10.6122 144.231 10.2571C143.796 9.90199 143.247 9.72443 142.584 9.72443C141.916 9.72443 141.362 9.90199 140.922 10.2571C140.486 10.6122 140.162 11.0833 139.949 11.6705C139.74 12.2528 139.636 12.892 139.636 13.5881C139.636 14.2888 139.74 14.9304 139.949 15.5128C140.162 16.0952 140.486 16.5616 140.922 16.9119C141.362 17.2623 141.916 17.4375 142.584 17.4375Z" fill="#03499A"/>
</svg>
